<svg xmlns="http://www.w3.org/2000/svg" viewBox="0 0 53.28 53.04">
    <defs>
        <style>.cls-1{fill:#fff;}</style>
    </defs>
    <g id="Layer_2" data-name="Layer 2">
        <g id="Layer_1-2" data-name="Layer 1">
            <path
                d="M24.24,0H28.8a4.2,4.2,0,0,0,.66.21A26.17,26.17,0,0,1,45.53,8c13.6,13.63,8,37.47-10.24,43.57-1.95.66-4,1-6,1.48H23.76a3.2,3.2,0,0,0-.63-.23,26.38,26.38,0,0,1-22.47-21C.39,30.48.22,29.16,0,27.84v-2.4a4.47,4.47,0,0,0,.2-.78A26.39,26.39,0,0,1,20.19.84C21.53.5,22.89.28,24.24,0Zm2.33,50A23.48,23.48,0,1,0,3.12,26.38,23.55,23.55,0,0,0,26.57,50Z" />
            <path class="cls-1"
                d="M29.28,53c2-.48,4.06-.82,6-1.48C53.55,45.46,59.13,21.62,45.53,8A26.17,26.17,0,0,0,29.46.21,4.2,4.2,0,0,1,28.8,0H53.28V53Z" />
            <path class="cls-1"
                d="M24.24,0c-1.35.28-2.71.5-4,.84A26.39,26.39,0,0,0,.2,24.66a4.47,4.47,0,0,1-.2.78V0Z" />
            <path class="cls-1"
                d="M0,27.84c.22,1.32.39,2.64.66,3.95a26.38,26.38,0,0,0,22.47,21,3.2,3.2,0,0,1,.63.23H0Z" />
            <path class="cls-1"
                d="M26.57,50A23.48,23.48,0,1,1,50.12,26.83,23.54,23.54,0,0,1,26.57,50Zm.19-29.14c.45.36.82.65,1.19,1L41.19,32.75c1,.83,1.9.83,2.5,0s.37-1.59-.57-2.37L28.41,18.32c-1.33-1.09-2-1.08-3.27,0L13.3,28.06c-1.07.89-2.18,1.75-3.23,2.68A1.5,1.5,0,0,0,12,33.06c.39-.27.74-.6,1.11-.91Z" />
            <path
                d="M26.76,20.9,13.08,32.15c-.37.31-.72.64-1.11.91a1.5,1.5,0,0,1-1.9-2.32c1-.93,2.16-1.79,3.23-2.68l11.84-9.75c1.3-1.07,1.94-1.08,3.27,0L43.12,30.43c.94.78,1.14,1.64.57,2.37s-1.49.78-2.5,0L28,21.86C27.58,21.55,27.21,21.26,26.76,20.9Z" />
        </g>
    </g>
</svg>