<svg xmlns="http://www.w3.org/2000/svg" viewBox="0 0 128.23 128.37"><g id="Layer_2" data-name="Layer 2"><g id="Layer_1-2" data-name="Layer 1"><path d="M128.23,42.12v84.25l-2.66,1.95H67l-1.16-1.84H62.42l-1.88,1.89H2.34L0,126V112.3l4,.2v11.76H58.63l1.74-1.74H68l1.33,1.63h54.79V45.36h-3.88v69.9a21.48,21.48,0,0,1,0,3.5,11.47,11.47,0,0,1-1,2.5H9.29l-1.5-1.5V45.28H3.91v58.65l-.75-.58-1.07,3.16L0,102.69V42.48c.5-.5.81-1.1,1.22-1.17a30.93,30.93,0,0,0,10-3.82c2.62-1.48,5.83-1.91,8.75-2.8V8.5l1.64-1.64c1.87.37,3.9.68,5.89,1.19C29.3,8.52,31.08,9.2,33,9.82V0h6c.22,1.92,1.83.73,2.72,1.16,6.88,3.28,13,7.54,17,14.12,2.45,4,4.64,8,5.4,12.77.45,2.79,1.62,5.46,2.45,8.15,3.17-1.84,6.2-3.2,8.76-5.18s5.93-2.67,8.74-4.32a15.54,15.54,0,0,1,4.82-1.59c3.87-.75,7.56-2.57,11.65-2,3.35-2.19,7.07-.51,10.59-.94.6-.07,1.32.78,2.08,1.26V36c2,.89,4.51,1.28,5.88,2.73,2,2.07,4.68.82,6.59,2.36A9.23,9.23,0,0,0,128.23,42.12ZM116,109.46V42.38l-2.77-1.16v4.86l-3.31,1.33-1.88-1.88V27C92,26.68,78.44,32.77,66.29,42.6v70.3c12.59-9.78,26.58-14.22,42-14.85V57.59l2.9-2.92,1.89,1.89v44.38c-1.77,1.16-7.49,2-12.18,2.44-3.94.39-7.81,1.47-11.71,2.25C98.3,105.62,107.08,107.41,116,109.46ZM37.13,5.16v71c11.26,3,19.39,9.66,24.91,21V92.28c0-16.2.06-32.4,0-48.6,0-3.88-.62-7.74-1-11.61,0-.17,0-.36,0-.49-2.33-4.38-3.25-9.32-5.92-13.6C51.11,11.61,44.47,6.59,37.13,5.16ZM12,109.37c1.35-.1,2.63.15,3.56-.31,3.92-2,8.29-1.7,12.4-2.63,2.86-.64,6-.25,9-.08s6.21.19,9.06,1.09c2.61.83,5.58.87,7.85,2.82.39.34,1.44-.11,2.65-.24a11.92,11.92,0,0,0-1.29-2c-3.88-3.54-7.14-7.69-11.56-10.71A87.16,87.16,0,0,0,28,89.17c-2.72-1-6.15-.52-8.24-3.78V40.15A11.66,11.66,0,0,0,12,42.33Zm13-26.3a7.43,7.43,0,0,0,1.79,1.15,45.53,45.53,0,0,1,16.11,7c4.92,3.57,11.08,7.62,13.54,11.91a10.91,10.91,0,0,0,3.7,3.43c-1.33-4.92-2.71-9-5.18-12.64s-5-7.08-9-9.17c-2.46-1.3-4.92-2.81-7.57-3.42a12.66,12.66,0,0,1-5.58-2.65V15.6c-2-2.87-5.27-2-7.8-3.39Zm30.59,33.2a28.6,28.6,0,0,0-14.22-4.77c-10-.54-20.08-1.13-29.57,3.52l.26,1.25Zm60.55-1.41a47.9,47.9,0,0,0-12.54-3.41c-3.74-.59-7.67.15-11.47-.2s-7.5.52-11.05,1.28c-2.95.63-6.29,1.31-9,3.57h44.09Z"/></g></g></svg>