<svg xmlns="http://www.w3.org/2000/svg" viewBox="0 0 1098.11 1098.11"><defs><style>.cls-1{fill:none;stroke:#f2f2f2;stroke-miterlimit:10;stroke-width:40px;}</style></defs><g id="Layer_2" data-name="Layer 2"><g id="Layer_1-2" data-name="Layer 1"><path d="M578.13,218.52c12.7,2.41,25.68,3.85,38,7.39,51.16,14.64,89.07,46,114.12,92.84,15.09,28.21,21.23,58.64,21.06,90.5-.12,23.1,0,46.19,0,69.28,0,25.13-15.38,40.54-40.37,40.63-6.17,0-12.34,0-19.44,0-3.52,33.4-15.36,63.11-39.14,87.38,6.7,13.41,13.09,26.54,19.9,39.46,1.05,2,3.81,3.54,6.12,4.34,18.48,6.37,37.21,12,55.55,18.8,50.71,18.72,83.92,55.17,103.82,104.53a176.93,176.93,0,0,1,12.46,62.69c.24,10.81-4.37,15.6-15.23,15.6q-269.35,0-538.72,0c-10.42,0-15.54-4.94-14.95-15.21,4.2-73,36.42-128.89,102.91-161.79,20.67-10.23,43.62-15.94,65.67-23.27,5.69-1.89,9.44-4.59,11.93-10.18,4.53-10.14,9.68-20,14.87-29.84,1.88-3.55,1.65-5.72-1-9.06-6.7-8.31-13.43-16.82-18.43-26.17-3.37-6.3-7-8.05-13.67-8-16,.19-28.68-6.76-34.89-21.79-2.87-7-3-15.19-3.58-22.9-.32-4.41-.89-7.12-5.45-9.48-12.3-6.35-19.18-17.16-19.26-30.94-.16-31.94-1.44-64,1.15-95.8,4.88-60,34.16-106.58,84.4-139.66,25.59-16.85,54-26.1,84.53-28.55a15.17,15.17,0,0,0,2.93-.84Zm98.33,210.84c-13.68-2.5-26.38-4.21-38.76-7.2a221.47,221.47,0,0,1-97.86-51.66c-1.78-1.6-4.66-3.1-6.88-2.91a85.42,85.42,0,0,0-42.83,16.05c-14.27,10.16-23.32,24.86-33.59,38.48-1.07,1.41-1.21,3.9-1,5.82,2.1,24.22,4,48.46,6.7,72.62,1.62,14.43,4.6,28.72,7,43.36,11.4,0,21.69-.16,32,.09,3.63.09,5.25-1.25,6.89-4.42,6.6-12.75,17.39-19.58,31.7-20.27,8.84-.43,17.73-.38,26.59,0,20.71.81,36.4,16.87,36.47,37s-16,36.44-37,37.08c-7.62.23-15.26.07-22.89.06-16.09,0-28-6.93-35.46-21.41-.66-1.29-2-3.1-3.12-3.14-7.47-.28-14.95-.15-22.86-.15,8.54,16.62,26.39,33.21,44.31,41,59.17,25.79,120.3-8.44,136.12-68.8,5.34-20.4,7.37-41.73,10.12-62.74C674.16,462.08,675,445.83,676.46,429.36ZM544.16,827.05c-33.63-49-66.41-96.69-84.69-152.61-15.68,5.23-30.22,10.36-44.93,14.94-47.13,14.65-78.34,46.24-97,91a136.43,136.43,0,0,0-10.76,46.62Zm43.34-.24H825.19c-5.56-48.1-26.16-87.13-64.73-116.14-26-19.57-58-24.62-88.33-36.47C653.72,730.45,621,778.16,587.5,826.81Zm89.09-423.13c4.75-44-21.85-87.46-62.29-103.66-20.4-8.17-41.54-7.66-62.73-7.12a99.84,99.84,0,0,0-90.22,64.17c-2.85,7.53-4.46,15.52-6.64,23.3l2.65,1.65c.8-1.42,1.35-3.08,2.44-4.23,20.27-21.5,45.31-32.85,74.66-35.36a22.73,22.73,0,0,1,18.95,6.68C587.83,381.92,629.29,399.06,676.59,403.68Zm49.13-12.19C721.06,309.05,647.21,241.78,564,243.28c-90.44,1.64-154,73.57-158.06,148.13,1.6.11,3.2.3,4.81.31,6.13,0,12.27,0,18.7,0,.22-2.55.37-4.56.58-6.56,5.63-53.87,33.53-90.83,84.19-110.2,22.93-8.77,47-7.89,70.87-6.49A123.91,123.91,0,0,1,697,360.05c2.71,10.22,3.92,20.84,5.85,31.44Zm-160,424.05c14.66-22.25,28.87-43.91,43.24-65.47,2-3,1-4.61-1.13-6.76-13.62-13.48-27.11-27.08-40.68-40.61a23.86,23.86,0,0,0-3-2.16c-14,14.78-27.75,29.24-41.32,43.89a5.48,5.48,0,0,0-.44,5.15C536.64,771.46,551,793.21,565.77,815.54ZM625,723.89c8.56-20.74,17.1-41.38,25.51-62.07a5.56,5.56,0,0,0-.34-4c-5-10.33-10.21-20.6-15.69-31.57q-26.65,28.18-52.1,55.08Zm-130.51-92.6c-2.6,5.14-4.63,10.66-7.9,15.32-6.36,9.07-6,17.69-1.41,27.46,7.72,16.3,14.52,33,22.13,50.57l39.23-41.45ZM695.85,494.43c5.91,0,11.43.13,16.94,0,8.84-.26,13.62-5,13.77-14,.17-10.07,0-20.15,0-30.23,0-11,0-22.09,0-33.28H702C699.93,442.78,697.92,468.17,695.85,494.43ZM405,416.66c0,22.33-.19,44.09.11,65.85.09,6.65,4.79,11.22,11.37,11.7,6.29.45,12.64.09,19.18.09-2.08-26.17-4.12-51.83-6.16-77.64ZM553.33,544c-4.12,0-8.26-.24-12.36,0-7.19.52-12.28,5.81-12.24,12.32s5.13,11.9,12.34,12.2c8.23.34,16.5.35,24.73,0,7.19-.31,12.27-5.78,12.24-12.29S572.91,544.51,565.7,544C561.59,543.73,557.46,544,553.33,544Zm-10.12,98,21.73,21.79,20.57-21.79Zm-113-122.59c-2.22,14.67.67,25,13.76,24-1.44-8-2.87-15.94-4.32-24Z"/><path d="M789,781.8c-.27,6.09-2.61,10.13-7.8,12.17-5.47,2.15-10.29.87-13.76-3.7-3-3.92-4.79-8.73-8-12.44-6.93-8.09-14.32-15.79-21.65-23.53-3.45-3.64-6.45-7.92-4.11-12.6a19.42,19.42,0,0,1,9.12-8.77c2.71-1.1,7.59.24,10.19,2.22a118.74,118.74,0,0,1,34.63,42A23.1,23.1,0,0,1,789,781.8Z"/><path d="M714.12,720.87a12.27,12.27,0,1,1-12.23-12.29A12.68,12.68,0,0,1,714.12,720.87Z"/><circle class="cls-1" cx="549.05" cy="549.05" r="529.05"/></g></g></svg>