<svg xmlns="http://www.w3.org/2000/svg" viewBox="0 0 44.88 37.44">
    <defs>
        <style>.cls-1{fill:#fff;}</style>
    </defs>
    <g id="Layer_2" data-name="Layer 2">
        <g id="Layer_1-2" data-name="Layer 1">
            <path class="cls-1"
                d="M44.88,37.44H0V0H44.88ZM22.37,4H42.3c1.51,0,2.28-.62,2.29-1.83S43.85.28,42.37.28H2.51C1,.28.27.94.29,2.17S1.07,4,2.57,4Zm.1,29.41H10.23c-2.64,0-5.28,0-7.92,0-1.42,0-2.25.92-2,2.21.22,1.12,1,1.51,2.11,1.51H42.87a1.79,1.79,0,0,0,1.72-1.91c0-1.17-.77-1.8-2.19-1.81Zm0-16.57H3.05A3.88,3.88,0,0,0,1.64,17a1.71,1.71,0,0,0-1,2.06,1.89,1.89,0,0,0,2.13,1.5q13,0,25.91,0H42.31a1.87,1.87,0,0,0,2-1.89,1.84,1.84,0,0,0-2.06-1.83Z" />
            <path
                d="M22.37,4H2.57C1.07,4,.3,3.37.29,2.17S1,.28,2.51.28H42.37c1.48,0,2.24.67,2.22,1.89S43.81,4,42.3,4Z" />
            <path
                d="M22.47,33.41H42.4c1.42,0,2.17.64,2.19,1.81a1.79,1.79,0,0,1-1.72,1.91H2.42c-1.1,0-1.89-.39-2.11-1.51-.25-1.29.58-2.2,2-2.21,2.64,0,5.28,0,7.92,0Z" />
            <path
                d="M22.48,16.84H42.27a1.84,1.84,0,0,1,2.06,1.83,1.87,1.87,0,0,1-2,1.89H28.63q-12.94,0-25.91,0a1.89,1.89,0,0,1-2.13-1.5,1.71,1.71,0,0,1,1-2.06,3.88,3.88,0,0,1,1.41-.17Z" />
        </g>
    </g>
</svg>