<svg xmlns="http://www.w3.org/2000/svg" viewBox="0 0 1098.11 1098.11">
    <defs>
        <style>.cls-1{fill:none;stroke:#000;stroke-miterlimit:10;stroke-width:40px;}</style>
    </defs>
    <g id="Layer_2" data-name="Layer 2">
        <g id="Layer_1-2" data-name="Layer 1">
            <path
                d="M658.3,443.24c34.6,0,68.22.17,101.84-.07,17.3-.12,32.75,4.5,41.68,19.86,5,8.57,8.41,19.32,8.6,29.15.86,46.45.52,92.92.3,139.38-.14,29.09-19.23,48.23-48.39,48.51-31.19.31-62.39.08-93.58.08H657.48v12.27q0,160-.16,320c0,8.4-.72,17.43-3.84,25.06-7.37,18.07-22,27.76-41.5,27.91q-75.68.61-151.36,0c-24.87-.23-42.86-18.24-44.81-43.19-.31-4-.34-7.93-.34-11.9q0-158.64,0-317.29V680.15H404.8c-24.46,0-48.92.12-73.39,0-30.5-.19-49.31-18.76-49.43-49.11q-.27-69.69,0-139.38c.13-29.59,18.49-48,48.06-48.32,24.77-.28,49.54-.06,74.31-.06h11.1c0-4.87-.13-8.75,0-12.61,1.4-37.52-.42-75.51,5-112.44C431,246,467.58,189.24,533,153.63c31.8-17.32,66-27.12,102.51-27.25,45.87-.16,91.76.68,137.6-.39,18.25-.43,37.2,15,41.25,32.63A74.74,74.74,0,0,1,816.14,175q.21,62.82.06,125.63c-.06,32-18.64,50.46-50.83,50.74-27.21.24-54.42.33-81.64.53a49.08,49.08,0,0,0-8.21.68c-13.64,2.43-16.73,5.17-17.07,19.24C657.89,395.21,658.3,418.66,658.3,443.24ZM337.52,625h11.12c30.28,0,60.56-.16,90.84.11,17.6.15,29.11,11.11,30.88,28.66a108.56,108.56,0,0,1,.31,11q0,166.94,0,333.85V1010h131.5V997.77q0-167.84,0-335.68c0-25.91,11.06-37,36.69-37.05q53.22,0,106.43,0h9.82V498.38H744.74c-36.09,0-72.18.12-108.27-.05-20.14-.09-33.47-10.77-33.8-29.69-.61-34.82-1.14-69.78,1.33-104.46,2.74-38.53,24-60.72,62.25-65.18,27.19-3.17,54.88-2.07,82.35-2.84,3.89-.11,7.78,0,12,0V180.69a12.34,12.34,0,0,0-3-.89c-39.45.11-78.95-.85-118.34.72C598.64,182.14,561.19,194.64,530,222c-39.46,34.62-56.06,80-58.45,131-1.69,35.7-.72,71.52-.87,107.29-.12,26.78-11.27,38.13-37.74,38.16q-37.17,0-74.32,0H337.52Z" />
            <circle class="cls-1" cx="549.05" cy="549.05" r="529.05" />
        </g>
    </g>
</svg>