<svg xmlns="http://www.w3.org/2000/svg" viewBox="0 0 119.19 66.83"><g id="Layer_2" data-name="Layer 2"><g id="Layer_1-2" data-name="Layer 1"><path d="M35.23,43.57a18.79,18.79,0,0,0-12.78-3.89A19.46,19.46,0,0,0,7.13,47.94,18.73,18.73,0,0,0,3.61,58.06c0,.19,0,.38,0,.57a1.83,1.83,0,0,1-1.83,1.89A1.79,1.79,0,0,1,0,58.58a22.27,22.27,0,0,1,1.93-9,19,19,0,0,1,4.54-6.67c2.62-2.36,5.38-4.59,9.18-5.56-4.85-3.44-6.73-8-5.86-13.59a11.67,11.67,0,0,1,4-7.29C21.33,10.11,30.12,13,34,17.64c4.75,5.72,4.69,13.72-2.62,19.59,1.31.67,2.61,1.3,3.88,2,.79.42,1.51,1,2.31,1.37a1.2,1.2,0,0,0,1,0,34.9,34.9,0,0,1,11.27-6c.1,0,.19-.1.29-.15C42.4,29.69,39,21.93,41.15,13.8A18.84,18.84,0,0,1,58.59,0c7.9-.42,15.88,4.22,18.66,11.89a18.87,18.87,0,0,1,1.06,8.55,18.43,18.43,0,0,1-3,8.18,18.5,18.5,0,0,1-6.64,5.87A34.5,34.5,0,0,1,81,40.83l6.88-3.71A12.61,12.61,0,0,1,82,25.38,12,12,0,0,1,85.68,17a14.18,14.18,0,0,1,20.16.07c4.9,5.13,5.88,13.87-2.1,20.2,1.13.55,2.22,1.1,3.32,1.61a20.64,20.64,0,0,1,6.42,5.06,21.37,21.37,0,0,1,5.71,14.42c0,1.44-.92,2.4-2.1,2.14s-1.43-1-1.52-2.08c-.45-5.53-2.45-10.39-6.73-14a20,20,0,0,0-21.77-2.78c-1.13.55-2.21,1.19-3.44,1.86,1.07,1.24,2.09,2.23,2.9,3.38a31.32,31.32,0,0,1,5.72,17.77,1.89,1.89,0,0,1-1.78,2.18c-1,0-1.74-.72-1.81-2A26.52,26.52,0,0,0,87,56a28.26,28.26,0,0,0-7.62-11.14c-8.43-7.08-18-9.27-28.66-6.11a28.41,28.41,0,0,0-14.46,10,27.45,27.45,0,0,0-5.69,15.95c-.07,1.29-.6,2-1.62,2.1a1.86,1.86,0,0,1-2.2-2,28.19,28.19,0,0,1,1.94-10.31A38.24,38.24,0,0,1,34.07,45C34.42,44.52,34.79,44.09,35.23,43.57ZM74.8,18.47C75,10.3,67.89,3.65,59.69,3.63S44.37,9.81,44.38,18.48c0,8.45,7,14.64,15.09,14.72S75,26.64,74.8,18.47ZM23.33,36a9.78,9.78,0,1,0,.27-19.56,10.29,10.29,0,0,0-10.44,9.65A10.2,10.2,0,0,0,23.33,36Zm72.39,0a9.77,9.77,0,1,0,.19-19.54A10,10,0,0,0,85.61,26,10,10,0,0,0,95.72,35.94Z"/></g></g></svg>