<svg xmlns="http://www.w3.org/2000/svg" viewBox="0 0 209.07 208.64"><g id="Layer_2" data-name="Layer 2"><g id="Layer_1-2" data-name="Layer 1"><path d="M0,145.05c2.78-2.94,5.57-5.88,8.34-8.83,4.07-4.35,8.7-7.1,15.06-6.46,3.63.36,13.91-7.57,14.78-11.19.32-1.33-.44-3.06-1-4.46-3-7-2.32-13.34,3.6-18.41,2.42-2.07,3-3.83,2.13-6.94-1.78-6.53,1-11.86,6.28-15.46,3-2,4-4.26,4.57-7.76.53-3.21,2.28-7.16,4.8-8.9,4-2.75,5.15-6.1,6.1-10.39,1.58-7.07,6.89-11,14-11.42,2.89-.19,5.73-.92,8.6-1.26,2.64-.32,5.39-1,7.94-.55,11.22,1.76,22.43,3.65,33.56,5.88,6.86,1.38,10.82,6.19,11.63,13,.39,3.32,1.4,5.41,4.3,7.12,5.83,3.43,4.6,10.85,7.73,15.17,3.34,4.61,9,7.33,9.58,14.17.16,2,1.76,4.34,3.38,5.73,7.85,6.78,9.19,11.11,5,20.52-1.18,2.67-1.31,4.37.93,6.32a82.19,82.19,0,0,1,6.35,6.31c2,2.2,4.22,2.4,7.21,2.35,3.8-.05,7.64,1.58,11.42,2.61.72.19,1.29,1,1.9,1.5,12,10.65,16.48,18.61,1.36,32.79-14.63,13.72-28.66,28.08-43,42.15H145.11c-3.94-3.67-8.38-6.95-11.65-11.14-2.34-3-4.88-7.62-4.17-10.82,1.26-5.71-1.28-8.57-4.7-11.76-2.18-2-4.34-4.09-6.3-6.32a10.4,10.4,0,0,0-8.51-3.71c-19.92.2-13-2.63-27.29,11.14-.39.38-.73.81-1.14,1.16-2.22,1.95-3.14,4.12-2.16,7.19,1.78,5.52-.46,10.15-4.23,14-3.58,3.63-7.56,6.87-11.37,10.29H52.17c-4.33-4.06-8.74-8-13-12.23-1.88-1.86-2.58-4.24-.47-6.52,2.29-2.47,4.82-2.2,7.17-.14,2,1.78,3.87,3.79,5.83,5.66,5.62,5.35,7,5.33,12.67-.17,1-1,1.9-1.94,2.87-2.89,3.08-3,3.25-6,.13-9.14Q46.71,162.51,26,141.77c-3.4-3.42-6.55-3.18-9.74.21-1.3,1.39-2.7,2.67-4,4-3.2,3.33-3.17,6.69,0,10,1.89,1.95,3.85,3.82,5.72,5.78,2.33,2.45,4.76,5.15,1.33,8.28-3.25,3-6.06.77-8.41-1.69-3.72-3.9-7.31-7.93-11-11.9ZM112.6,67.82c-1,6.06-3,11.13-8.51,13.51a13.82,13.82,0,0,0-7.86,7.43,16.4,16.4,0,0,1-7.3,7.13c-3.15,1.54-5.37,3.06-6.52,6.48-1.47,4.38-4.92,6.91-9.14,8.68a8.72,8.72,0,0,0-4.38,3.67c-4.55,9.8-8,11.73-19.15,10.77a9.48,9.48,0,0,0-5.59,1.67c-2,1.33-3.55,3.34-5.25,5.09-4.15,4.27-4.2,4.34.23,8.81q13.48,13.59,27.1,27.07c5.18,5.13,5.23,5.09,10.71-.32,2.13-2.09,4.35-4.11,6.32-6.35,4.43-5.07,9.9-7.15,16.62-7,8.51.23,17.49,2.25,24.31-5.68.73-.85,4.27-.25,5.67.79,1,.73.87,3.43.57,5.14-.2,1.17-1.41,2.29-2.4,3.17-2.62,2.34-2.56,4.48,0,6.79a40.86,40.86,0,0,1,4.59,4.62c3,3.72,5.42,3.12,8.54-.11,8.86-9.19,18-18.08,27-27.14,5.2-5.23,5.16-5.27-.22-10.72-1.15-1.16-2.34-2.27-3.47-3.45-1.66-1.74-3.27-2.49-5.69-1s-5.9,1.7-6.84-1.45c-.59-2,.82-5.08,2.21-7.06,2-2.86,5.23-4.88,7.05-7.81a7.48,7.48,0,0,0,.07-6.53c-1.55-2.66-4.53-2.63-7.09-.72-1.52,1.13-2.72,3-4.38,3.54s-4.68.6-5.77-.47-1.28-4.17-.52-5.72c1.16-2.33,3.53-4,5.31-6.08,3.23-3.69,3.74-7.19,1.2-9.27-3.46-2.83-6-.41-8.46,1.83-.4.36-.78.75-1.19,1.11-2.41,2.12-5.14,3.74-7.87,1s-1.13-5.44,1.1-7.81,4.93-4.51,6.43-7.28c.87-1.61.58-5.13-.62-6.23s-4.37-1-6.4-.43c-1.64.46-2.83,2.42-4.29,3.64-2.43,2-5.38,2.5-7-.25-.94-1.54-.53-4.69.48-6.42,1.45-2.51,4-4.37,6.06-6.54,2.35-2.5,2.9-5.42.65-8-2.52-2.94-5.63-2-7.8.44C116.51,55.4,107.84,58.69,112.6,67.82Zm87,82.37a90.48,90.48,0,0,0-5.79-7.05c-5.67-5.7-7-5.71-12.64-.22s-11.15,11.1-16.72,16.67c-7.1,7.09-14.24,14.15-21.29,21.3-5.87,6-5.8,7.18.24,13.25.57.58,1.12,1.18,1.73,1.72,4.4,3.89,6.88,4,11.16-.17Q176.33,176,196,156C197.46,154.54,198.24,152.48,199.63,150.19ZM87.75,81.82c-.24-.65-.36-2.21-1.21-3.06-5.1-5.18-10.21-10.38-15.69-15.13-1.1-1-4.76-.78-5.57.23-1.22,1.5-2.09,5.17-1.17,6.23A157.22,157.22,0,0,0,80.54,86.71C83.62,89.34,87.72,86.57,87.75,81.82ZM80.32,43l-1.55,1.55c-3.54-.08-6.49,4.88-4,7.67C80.9,59.1,87.51,65.56,94.23,71.88c2.16,2,5.26,1.78,7.15-.9,2-2.83.86-5.09-2.1-6.57a35.44,35.44,0,0,1-16.88-17Zm-7,53.31c-.16-.56-.14-1.88-.8-2.57A166.63,166.63,0,0,0,59.83,81.34c-1-.86-4.74-.32-5.49.77-1.12,1.61-1.74,5.15-.74,6.35A85.58,85.58,0,0,0,66.14,101C69.34,103.5,73.26,100.92,73.3,96.32Zm-24,5.51c-.89,1.08-3,2.53-3.48,4.42-1,3.67,3.85,9.08,8,9.44,3.18.28,5.21-1.26,5.67-4.32C59.88,108.56,53.7,102.23,49.31,101.83ZM91.14,42.32c2.61,6.34,5.87,11,10.75,11.7,3.2.49,6.22-3.88,8.19-8.28Z"/><path d="M57.06,20.22c-.31,3.61-4.56,5.86-7.33,3.46A181.77,181.77,0,0,1,33.79,7.73c-.88-1-.35-4.17.63-5.54.73-1,4.07-1.65,4.85-.94,5.94,5.42,11.56,11.19,17.21,16.92C57,18.67,56.92,19.68,57.06,20.22Z"/><path d="M175.3,5c-.9,1.71-1.37,3.33-2.4,4.42-4.27,4.49-8.66,8.85-13.09,13.17-2.1,2.05-4.6,3.19-7.1.77s-1.89-5.05.17-7.2c4.64-4.87,9.37-9.66,14.38-14.14,1.09-1,3.6-1,5.18-.58C173.59,1.74,174.3,3.63,175.3,5Z"/><path d="M99.27,13.11c0-3-.58-6.1.21-8.85A7.23,7.23,0,0,1,104.15,0c1.17-.25,4.15,2.23,4.24,3.64a132,132,0,0,1-.08,19.28c-.11,1.36-3.23,3.79-4.34,3.48A7.49,7.49,0,0,1,99.44,22c-.77-2.76-.2-5.88-.2-8.85Z"/><path d="M34.89,179.92c-3.22,1.91-5.37,4.17-6.77,3.77-1.65-.46-3.45-3.17-3.61-5-.11-1.19,2.81-3.83,4.09-3.66C30.4,175.22,31.94,177.46,34.89,179.92Z"/></g></g></svg>