<?xml version="1.0" encoding="utf-8"?>
<!-- Generator: Adobe Illustrator 27.0.0, SVG Export Plug-In . SVG Version: 6.00 Build 0)  -->
<svg version="1.1" id="Layer_1" xmlns="http://www.w3.org/2000/svg" xmlns:xlink="http://www.w3.org/1999/xlink" x="0px" y="0px"
	 viewBox="0 0 2381.1 1683.8" style="enable-background:new 0 0 2381.1 1683.8;" xml:space="preserve">
<style type="text/css">
	.st0{fill:#FFFFFF;}
</style>
<g>
	<path d="M744.8,604.5c15.1,0,29.7,0.1,44.3,0c7.5-0.1,14.3,2,18.1,8.6c2.2,3.7,3.7,8.4,3.7,12.7c0.4,20.2,0.2,40.4,0.1,60.7
		c-0.1,12.7-8.4,21-21.1,21.1c-13.6,0.1-27.2,0-40.7,0c-1.5,0-2.9,0-4.9,0c0,2,0,3.7,0,5.3c0,46.4,0,92.9-0.1,139.3
		c0,3.7-0.3,7.6-1.7,10.9c-3.2,7.9-9.6,12.1-18.1,12.1c-22,0.2-43.9,0.2-65.9,0c-10.8-0.1-18.7-7.9-19.5-18.8
		c-0.1-1.7-0.1-3.5-0.1-5.2c0-46,0-92.1,0-138.1c0-1.7,0-3.4,0-5.6c-1.8,0-3.2,0-4.6,0c-10.6,0-21.3,0.1-31.9,0
		c-13.3-0.1-21.5-8.2-21.5-21.4c-0.1-20.2-0.1-40.4,0-60.7c0.1-12.9,8-20.9,20.9-21c10.8-0.1,21.6,0,32.3,0c1.4,0,2.9,0,4.8,0
		c0-2.1-0.1-3.8,0-5.5c0.6-16.3-0.2-32.9,2.2-48.9c4.6-31.4,20.5-56.1,49-71.6c13.8-7.5,28.7-11.8,44.6-11.9
		c20-0.1,39.9,0.3,59.9-0.2c7.9-0.2,16.2,6.5,18,14.2c0.5,2.3,0.8,4.7,0.8,7.1c0.1,18.2,0.1,36.5,0,54.7c0,13.9-8.1,22-22.1,22.1
		c-11.8,0.1-23.7,0.1-35.5,0.2c-1.2,0-2.4,0.1-3.6,0.3c-5.9,1.1-7.3,2.3-7.4,8.4C744.6,583.6,744.8,593.8,744.8,604.5z M605.1,683.7
		c1.9,0,3.4,0,4.8,0c13.2,0,26.4-0.1,39.5,0c7.7,0.1,12.7,4.8,13.4,12.5c0.2,1.6,0.1,3.2,0.1,4.8c0,48.4,0,96.9,0,145.3
		c0,1.7,0,3.3,0,4.9c19.4,0,38.1,0,57.2,0c0-1.9,0-3.6,0-5.3c0-48.7,0-97.4,0-146.1c0-11.3,4.8-16.1,16-16.1c15.4,0,30.9,0,46.3,0
		c1.4,0,2.8,0,4.3,0c0-18.7,0-36.7,0-55.1c-1.7,0-3.1,0-4.5,0c-15.7,0-31.4,0.1-47.1,0c-8.8,0-14.6-4.7-14.7-12.9
		c-0.3-15.2-0.5-30.4,0.6-45.5c1.2-16.8,10.5-26.4,27.1-28.4c11.8-1.4,23.9-0.9,35.8-1.2c1.7,0,3.4,0,5.2,0c0-17.1,0-33.7,0-50.3
		c-0.6-0.2-0.9-0.4-1.3-0.4c-17.2,0-34.4-0.4-51.5,0.3c-17.7,0.7-34,6.1-47.6,18c-17.2,15.1-24.4,34.8-25.4,57
		c-0.7,15.5-0.3,31.1-0.4,46.7c0,11.7-4.9,16.6-16.4,16.6c-10.8,0-21.6,0-32.4,0c-3,0-6,0-9.2,0
		C605.1,647.1,605.1,665.1,605.1,683.7z"/>
</g>
<g>
	<path d="M945.8,1311.6c-121.3,0-242.6,0-363.9,0c-2.5-2.1-3.1-4.7-3.1-7.9c0.2-7.9,0-15.7,0.1-23.6c0-5,1.8-6.6,6.8-6.7
		c3.7,0,7.4,0,11.2,0c0-12.7,0.1-24.8-0.1-36.9c0-1.9-1.1-3.9-2.2-5.5c-4.2-6.6-9-12.8-12.9-19.6c-1.7-3-2.6-6.8-2.7-10.3
		c-0.3-17.2-0.1-34.4-0.1-51.6c0-4.9,1.7-6.5,6.6-6.2c3.7,0.2,7.4,0.4,11.4,0.6c0-2.1,0-3.6,0-5c0-44.2,0-88.3,0-132.5
		c0-6.3,1.4-7.7,7.7-7.7c35.6,0,71.1,0,106.7,0c1.5,0,2.9,0,4.7,0c0-1.7,0-3.1,0-4.4c0-19.2,0-38.4,0-57.6c0-7.1,1.2-8.3,8.2-8.3
		c66.1,0,132.2,0,198.4,0c7.2,0,8.4,1.2,8.4,8.5c0,110.5,0,221,0,331.6c0,1.6,0,3.2,0,5.1c4,0,7.6,0,11.2,0c5.1,0,6.8,1.7,6.8,6.7
		c0,7.9-0.1,15.7,0.1,23.6C949,1306.8,948.3,1309.5,945.8,1311.6z M920.1,1273.2c0-111.6,0-222.9,0-334.2c-64.7,0-129.1,0-193.4,0
		c0,111.6,0,222.9,0,334.2c11.5,0,22.7,0,34.2,0c0-1.7,0-3.1,0-4.6c0-34.7,0-69.4,0-104c0-10.2,5.2-15.4,15.4-15.4
		c30.3,0,60.6,0,91,0c10.5,0,15.7,5.1,15.7,15.5c0,34.7,0,69.4,0,104c0,1.5,0,2.9,0,4.5C895.5,1273.2,907.7,1273.2,920.1,1273.2z
		 M607.6,1142.9c4.6-1.7,9.5-2.5,13.1-5.1c5.3-3.8,9.2-3.6,14.9-0.1c10,6.1,21.5,6.6,33,5.6c7.5-0.6,9.3,1,9.3,8.3
		c0,14.6-0.3,29.2,0.1,43.8c0.2,7.2-1.7,13.5-5.1,19.6c-1.4,2.5-2.9,5-4.5,7.3c-9.6,13.6-22.4,23.3-36.8,31.2c-2.5,1.4-4.6,1.5-7,0
		c-5.6-3.4-11.2-6.8-17-10.3c0,10.1,0,20,0,29.9c36.2,0,72.2,0,108.1,0c0-88.1,0-176,0-263.9c-36.2,0-72,0-108.1,0
		C607.6,1053.7,607.6,1097.9,607.6,1142.9z M938.2,1284.1c-116.4,0-232.4,0-348.5,0c0,5.8,0,11.3,0,16.8c116.3,0,232.3,0,348.5,0
		C938.2,1295.3,938.2,1289.8,938.2,1284.1z M872.2,1273.3c0.1-0.8,0.2-1.2,0.2-1.7c0-35.9,0-71.8,0-107.7c0-3.2-1.5-4.4-4.6-4.4
		c-12.7,0.1-25.4,0-38.1,0c-0.9,0-1.9,0.2-2.7,0.3c0,38,0,75.7,0,113.5C842.2,1273.3,857,1273.3,872.2,1273.3z M589.4,1154.9
		c0,0.5,0,1.8,0,3.2c0,12.3,0.3,24.7-0.1,37c-0.2,6.3,1.6,11.8,4.7,17c8,13.3,19.6,22.8,32.8,30.4c0.8,0.4,2.2,0.5,3,0
		c13.4-7.8,25.3-17.4,33.2-31c2.9-4.9,4.5-10,4.3-15.9c-0.3-12.6-0.1-25.2-0.1-37.8c0-1.3,0-2.6,0-3.9c-0.2,0.3-0.5,0.7-0.7,1
		c-9.3-1.4-19.1-1.5-27.7-4.7c-7.8-2.9-14.1-2.3-21.7,0.2C608.6,1153.1,599.2,1153.4,589.4,1154.9z M816.2,1159.6c-1.5,0-2.8,0-4,0
		c-11.7,0-23.4,0-35.2,0c-5.5,0-5.7,0.2-5.7,5.7c0,34.7,0,69.3,0,104c0,1.3,0,2.6,0,3.8c15.3,0,30.1,0,44.9,0
		C816.2,1235.2,816.2,1197.7,816.2,1159.6z"/>
	<path d="M765.4,956.7c4.7,0,9.5-0.1,14.2,0c4.1,0.1,6,1.9,6,5.9c0.1,7.7,0.1,15.5,0,23.2c0,4.1-1.9,6-5.9,6
		c-9.7,0.1-19.5,0.1-29.2,0c-4.1,0-6-1.9-6-5.9c-0.1-7.7-0.1-15.5,0-23.2c0-4.1,1.9-5.9,5.9-6C755.4,956.6,760.4,956.7,765.4,956.7z
		 M755.1,981.1c6.9,0,13.4,0,19.9,0c0-4.7,0-9.2,0-13.7c-6.7,0-13.2,0-19.9,0C755.1,972,755.1,976.5,755.1,981.1z"/>
	<path d="M823.1,991.9c-4.7,0-9.5,0.1-14.2,0c-4.1-0.1-6-1.9-6-5.9c-0.1-7.7-0.1-15.5,0-23.2c0-4.1,1.9-6,5.9-6
		c9.7-0.1,19.5-0.1,29.2,0c4.1,0,6,1.9,6,5.9c0.1,7.7,0.1,15.5,0,23.2c0,4.2-1.9,6-6.3,6.1C832.8,991.9,828,991.9,823.1,991.9z
		 M833.4,967.4c-6.8,0-13.3,0-19.8,0c0,4.8,0,9.3,0,13.8c6.7,0,13.2,0,19.8,0C833.4,976.6,833.4,972.1,833.4,967.4z"/>
	<path d="M881.8,991.9c-4.9,0-9.7,0.1-14.6,0c-4-0.1-5.9-1.9-5.9-6c-0.1-7.7-0.1-15.5,0-23.2c0-4,1.9-5.9,6-5.9
		c9.7-0.1,19.5-0.1,29.2,0c4,0,5.9,1.9,5.9,6c0.1,7.7,0.1,15.5,0,23.2c0,4-1.9,5.9-6,5.9C891.5,991.9,886.6,991.9,881.8,991.9z
		 M891.8,967.5c-6.9,0-13.4,0-19.9,0c0,4.7,0,9.2,0,13.7c6.7,0,13.2,0,19.9,0C891.8,976.5,891.8,972.1,891.8,967.5z"/>
	<path d="M764.7,1038.3c-4.7,0-9.5,0.1-14.2,0c-4.1-0.1-6-1.9-6-5.9c-0.1-7.7-0.1-15.5,0-23.2c0-4.1,1.9-6,5.9-6
		c9.7-0.1,19.5-0.1,29.2,0c4.1,0,6,1.9,6,5.9c0.1,7.7,0.1,15.5,0,23.2c0,4.2-1.9,6-6.3,6.1C774.4,1038.3,769.6,1038.3,764.7,1038.3z
		 M755,1027.5c6.6,0,13.2,0,19.9,0c0-4.6,0-9.2,0-13.6c-6.8,0-13.3,0-19.9,0C755,1018.5,755,1022.8,755,1027.5z"/>
	<path d="M823.4,1038.3c-4.9,0-9.7,0.1-14.6,0c-4.1-0.1-5.9-1.9-6-6c-0.1-7.7-0.1-15.5,0-23.2c0-4.1,1.9-5.9,6-6
		c9.7-0.1,19.5-0.1,29.2,0c4.1,0,5.9,1.9,6,6c0.1,7.7,0.1,15.5,0,23.2c0,4.1-1.9,5.9-6,6C833.2,1038.3,828.3,1038.3,823.4,1038.3z
		 M833.4,1013.8c-6.8,0-13.3,0-19.8,0c0,4.8,0,9.3,0,13.8c6.7,0,13.2,0,19.8,0C833.4,1023,833.4,1018.6,833.4,1013.8z"/>
	<path d="M881.8,1038.3c-4.9,0-9.7,0.1-14.6,0c-4.1-0.1-5.9-1.9-6-6c-0.1-7.7-0.1-15.5,0-23.2c0-4.1,1.9-5.9,6-6
		c9.7-0.1,19.5-0.1,29.2,0c4.1,0,5.9,1.9,6,6c0.1,7.7,0.1,15.5,0,23.2c0,4.1-1.9,5.9-6,6C891.6,1038.3,886.7,1038.3,881.8,1038.3z
		 M872,1013.8c0,4.8,0,9.3,0,13.8c6.8,0,13.3,0,19.8,0c0-4.7,0-9.2,0-13.8C885.1,1013.8,878.7,1013.8,872,1013.8z"/>
	<path d="M881.7,1084.7c-4.7,0-9.5,0-14.2,0c-4.3-0.1-6.2-1.8-6.2-6.1c-0.1-7.7-0.1-15.5,0-23.2c0-3.9,1.9-5.8,5.7-5.8
		c9.8-0.1,19.7-0.1,29.5,0c3.9,0,5.8,1.9,5.8,5.7c0.1,7.9,0.1,15.7,0,23.6c0,4-2,5.8-6.1,5.9
		C891.4,1084.8,886.6,1084.7,881.7,1084.7z M891.8,1060.3c-6.8,0-13.3,0-19.8,0c0,4.8,0,9.3,0,13.8c6.7,0,13.2,0,19.8,0
		C891.8,1069.4,891.8,1065,891.8,1060.3z"/>
	<path d="M764.9,1131.1c-4.7,0-9.5,0-14.2,0c-4.3-0.1-6.2-1.8-6.2-6.1c-0.1-7.6-0.1-15.2,0-22.8c0-4.3,1.8-6.2,6.1-6.2
		c9.6-0.1,19.2-0.1,28.8,0c4.4,0,6.2,1.8,6.2,6.1c0.1,7.6,0.1,15.2,0,22.8c0,4.5-1.9,6.2-6.5,6.3
		C774.4,1131.2,769.7,1131.1,764.9,1131.1z M774.9,1120.5c0-4.7,0-9.2,0-13.8c-6.7,0-13.3,0-19.7,0c0,4.8,0,9.3,0,13.8
		C761.9,1120.5,768.3,1120.5,774.9,1120.5z"/>
	<path d="M823.4,1131.1c-4.9,0-9.7,0.1-14.6,0c-4.1-0.1-5.9-1.9-6-6c-0.1-7.7-0.1-15.5,0-23.2c0-4.1,1.9-5.9,6-6
		c9.7-0.1,19.5-0.1,29.2,0c4.1,0,5.9,1.9,6,6c0.1,7.7,0.1,15.5,0,23.2c0,4.1-1.9,5.9-6,6C833.2,1131.2,828.3,1131.1,823.4,1131.1z
		 M833.2,1120.5c0-4.9,0-9.4,0-13.9c-6.7,0-13.1,0-19.7,0c0,4.7,0,9.2,0,13.9C820.2,1120.5,826.6,1120.5,833.2,1120.5z"/>
	<path d="M881.5,1131.1c-4.7,0-9.5,0.1-14.2,0c-4.1-0.1-6-1.9-6-6c-0.1-7.7-0.1-15.5,0-23.2c0-4.1,1.9-6,6-6
		c9.7-0.1,19.5-0.1,29.2,0c4.1,0,6,1.9,6,6c0.1,7.7,0.1,15.5,0,23.2c0,4.1-1.9,5.9-6,6C891.5,1131.2,886.5,1131.1,881.5,1131.1z
		 M891.7,1120.5c0-4.9,0-9.3,0-13.9c-6.7,0-13.2,0-19.8,0c0,4.8,0,9.3,0,13.9C878.7,1120.5,885.1,1120.5,891.7,1120.5z"/>
	<path d="M764.7,1084.7c-4.7,0-9.5,0.1-14.2,0c-4.1-0.1-5.9-1.9-6-6c-0.1-7.7-0.1-15.5,0-23.2c0-4.1,1.9-6,6-6
		c9.7-0.1,19.5-0.1,29.2,0c4.1,0,5.9,1.9,6,6c0.1,7.7,0.1,15.5,0,23.2c0,4.1-1.9,5.9-6,6C774.6,1084.8,769.6,1084.7,764.7,1084.7z
		 M755,1073.9c6.9,0,13.4,0,19.9,0c0-4.7,0-9.2,0-13.7c-6.7,0-13.2,0-19.9,0C755,1064.9,755,1069.3,755,1073.9z"/>
	<path d="M823.3,1084.7c-4.7,0-9.5,0-14.2,0c-4.3-0.1-6.2-1.9-6.2-6.1c-0.1-7.6-0.1-15.2,0-22.8c0-4.3,1.8-6.2,6.1-6.2
		c9.6-0.1,19.2-0.1,28.8,0c4.3,0,6.2,1.8,6.2,6.1c0.1,7.6,0.1,15.2,0,22.8c0,4.3-1.8,6.2-6.1,6.2
		C833,1084.8,828.1,1084.7,823.3,1084.7z M813.5,1060.2c0,4.9,0,9.3,0,13.9c6.7,0,13.2,0,19.8,0c0-4.8,0-9.3,0-13.9
		C826.6,1060.2,820.2,1060.2,813.5,1060.2z"/>
	<path d="M661.3,1059.3c-11.5,0-22.9,0-34.4,0c-5,0-6.7-1.7-6.7-6.7c0-8.4,0-16.7,0-25.1c0-4.5,1.8-6.3,6.4-6.3
		c23.2,0,46.4,0,69.6,0c4.5,0,6.3,1.8,6.4,6.4c0,8.5,0,17,0,25.4c0,4.5-1.8,6.3-6.4,6.4C684.5,1059.3,672.9,1059.3,661.3,1059.3z
		 M691.8,1031.8c-20.5,0-40.8,0-60.9,0c0,5.8,0,11.3,0,16.8c20.5,0,40.6,0,60.9,0C691.8,1043,691.8,1037.5,691.8,1031.8z"/>
	<path d="M661,1110.9c-11.4,0-22.7,0-34.1,0c-5,0-6.8-1.7-6.8-6.7c0-8.4,0-16.7,0-25.1c0-4.6,1.8-6.4,6.3-6.4c23.2,0,46.4,0,69.6,0
		c4.6,0,6.4,1.8,6.4,6.3c0,8.5,0,17,0,25.4c0,4.7-1.8,6.4-6.7,6.4C684.2,1110.9,672.6,1110.9,661,1110.9z M691.9,1083.5
		c-20.7,0-40.9,0-61,0c0,5.7,0,11.2,0,16.7c20.5,0,40.7,0,61,0C691.9,1094.5,691.9,1089.1,691.9,1083.5z"/>
	<path d="M617.8,1203.1c8.8-8.9,17.2-17.2,25.6-25.6c0.8-0.8,1.6-1.6,2.4-2.4c2.7-2.6,5.5-2.9,7.6-1c2.1,2,2.2,6-0.2,8.5
		c-3,3.2-6.1,6.2-9.2,9.3c-6.9,6.9-13.7,13.8-20.6,20.6c-4.2,4.2-6.6,4.2-10.7,0.1c-3.4-3.3-6.8-6.6-10-10.1
		c-2.6-2.7-2.6-5.5-0.3-7.9c2.1-2.2,5-2.2,7.6,0.3C612.5,1197.5,614.9,1200.2,617.8,1203.1z"/>
</g>
<g>
	<path d="M1656.1,426.1c12.5-3.1,24.7-6.3,37.1-9c7.5-1.7,14.6,1.2,21.6,3.1c26,6.9,52,14,77.9,20.9c5.6,1.5,9.9,4.3,10.8,10.5
		c1.3,8.8-6.6,15.4-15.6,13.1c-13.1-3.4-26.2-7-39.3-10.6c-10.1-2.7-20.2-5.4-30.3-8.1c-4.3-1.1-7.5,0.4-8.4,3.9
		c-1,3.6,0.9,6.5,5.2,7.6c23.5,6.3,46.9,12.7,70.4,18.8c15.5,4,29.4-6.6,30.2-22.5c0.1-1.3,1.1-3,2.2-3.7
		c19-11.1,38.1-22.2,57.3-33.1c6.3-3.6,13.6-1.8,17,4c3.4,5.9,1.4,12.9-5,16.7c-33.3,19.3-66.6,38.7-100.1,57.6
		c-4.5,2.5-10.2,3.9-15.3,3.9c-29.4,0.4-58.9,0.1-88.3,0.2c-8.4,0-15.2-4-22.5-7.3c-3.7-1.7-5-3.6-4.9-7.8c0.3-18,0.1-35.9,0.1-53.9
		C1656.1,429.1,1656.1,427.7,1656.1,426.1z"/>
	<path d="M1782.7,310.6c3.6,7.1,7.3,14.2,10.6,21.4c1.9,4,4.5,5.7,9,5.6c22.9-0.2,45.9-0.1,69.4-0.1c0,1.3,0,2.5,0,3.6
		c0,20.2,0,40.4,0,60.6c0,1.9-0.2,3.3-2.2,4.5c-18.7,10.7-37.4,21.5-56,32.3c-0.5,0.3-1.1,0.6-2,1.1c-6.9-10.6-19.1-10.3-29.4-14
		c0-38.4,0-76.6,0-114.8C1782.2,310.7,1782.5,310.7,1782.7,310.6z"/>
	<path d="M1769.8,310.9c0,37,0,74.1,0,111.5c-8.4-2.2-16.5-4.3-24.7-6.5c-11.4-3.1-22.9-6.1-34.3-9.3c-8.6-2.4-17.2-2.6-25.8-0.1
		c-1.5,0.4-3.1,0.7-4.8,1.1c0-23.4,0-46.5,0-70.1c1.4,0,2.7,0,4,0c21.8,0,43.7-0.1,65.5,0.1c4.4,0,6.9-1.6,8.7-5.5
		c3.4-7.3,7.2-14.4,10.8-21.6C1769.4,310.7,1769.6,310.8,1769.8,310.9z"/>
	<path d="M1704,277.5c-4.2,0-7.9,0-12,0c0-3.4-0.1-6.6,0-9.8c0.4-10.2-3.4-18.5-10.8-25.6c-17.2-16.2-17.6-42.9-1.2-59.7
		c1.6-1.7,3.5-3.1,5.8-5.1c0.1,1.8,0.2,2.8,0.2,3.9c0,9.7,0.1,19.4,0,29.2c0,3,1,5.2,3.6,6.9c5.5,3.6,11,7.3,16.5,11
		c2.7,1.9,5.3,1.8,8,0c5.4-3.6,10.7-7.2,16.2-10.8c2.7-1.7,3.8-4,3.8-7.2c-0.1-10.7,0-21.4,0-32.7c1.1,0.7,2,1.2,2.7,1.7
		c18.6,15.1,20.9,43.6,3.8,60.7c-9.5,9.5-13.7,19.8-12.5,32.8c0.1,1.4,0,2.7,0,4.4c-3.9,0-7.7,0-12,0c0-5.6,0.1-11.3,0-16.9
		c-0.1-4.6-3.6-7.7-7.5-6.5c-3.2,1-4.5,3.3-4.5,6.5C1704,266.1,1704,271.7,1704,277.5z"/>
	<path d="M1608.4,409.6c11.9,0,23.6,0,35.5,0c0,31.8,0,63.4,0,95.3c-11.7,0-23.5,0-35.5,0C1608.4,473.4,1608.4,441.6,1608.4,409.6z"
		/>
	<path d="M1659.8,325.6c6-12,11.6-23.3,17.4-34.6c0.3-0.7,1.6-1.3,2.4-1.3c28.6,0,57.1,0,85.7,0.1c0.1,0,0.2,0.1,0.6,0.4
		c-1.9,3.9-3.9,7.9-5.9,11.9c-3.5,7-7,14.1-10.6,21c-0.6,1.1-2.1,2.4-3.1,2.4C1717.7,325.6,1689.1,325.6,1659.8,325.6z"/>
	<path d="M1785.6,289.7c1.9,0,3.1,0,4.3,0c26.7,0,53.4,0.1,80.1-0.1c3.1,0,4.6,1,5.9,3.7c4.6,9.5,9.4,19,14.1,28.4
		c0.5,1.1,1,2.2,1.7,3.7c-1.5,0.1-2.7,0.2-3.9,0.2c-26.8,0-53.6-0.1-80.5,0.1c-3,0-4.3-1-5.6-3.6
		C1796.6,311.5,1791.3,301,1785.6,289.7z"/>
	<path d="M1596,493.1c-12,0-23.7,0-35.5,0c0-23.8,0-47.5,0-71.4c11.7,0,23.5,0,35.5,0C1596,445.4,1596,469.1,1596,493.1z"/>
	<path d="M1856,277.6c-9.5,0-18.2,0-26.9,0c6.2-2.1,11.5-5.5,15-11.2c3.5-5.7,4.5-11.8,2.9-18.3c-2.6-10.9-12.6-18.5-23.9-18.3
		c-11.3,0.2-20.7,8.4-22.9,19.9c-2.3,11.8,4.1,21.7,18.4,27.8c-9,0-17.6,0-26.8,0c0.9-1,1.4-1.6,2-2.2c5.3-4.8,4.2-7.1,1.1-12.8
		c-0.9-1.5-3.6-2.5-5.6-2.7c-4.2-0.4-8.5-0.1-13-0.1c0-3.9,0-7.7,0-12c4.1,0,8.3-0.1,12.5,0c3.8,0.1,5.9-1.7,7.4-5.1
		c1.5-3.5,1.9-6.6-1.2-9.5c-3.1-2.9-6-5.9-9.1-9c2.9-2.8,5.6-5.5,8.8-8.7c1.8,1.9,3.6,4,5.5,5.9c3.4,3.5,6.2,7.6,12.6,4.7
		c6.2-2.8,5-7.5,5.1-12.2c0.1-2.6,0-5.2,0-7.9c4,0,7.7,0,12,0c0,4.2,0.1,8.4,0,12.6c-0.1,4,1.8,6.1,5.3,7.6c3.7,1.6,6.6,1.5,9.4-1.5
		c2.8-3,5.7-5.9,8.7-9c2.8,3,5.4,5.8,8.4,9c-2.8,2.7-5.8,5.8-9,8.8c-3,2.8-2.7,5.7-1.2,9.2c1.4,3.4,3.4,5.4,7.2,5.3
		c4.2-0.1,8.4,0,12.9,0c0,4,0,7.7,0,12c-3.7,0-7.5,0.1-11.3,0c-4.2-0.2-7.2,0.9-8.7,5.2c-1.9,5.2-1.9,6.1,2.2,10.2
		C1854.3,275.7,1854.9,276.4,1856,277.6z"/>
	<path d="M1823.7,265.7c-6.5,0-11.9-5.5-11.9-12c0-6.7,5.5-12.1,12.2-12c6.5,0.1,11.8,5.6,11.7,12.1
		C1835.7,260.4,1830.2,265.7,1823.7,265.7z"/>
</g>
<g>
	<path d="M1315.9,1665.2c-67.6,0-135.2,0-202.9,0c-4.3-0.7-8.7-1.1-13-2c-45.2-10.2-74.2-37.6-86.7-82.3c-1.7-6.1-2.3-12.5-3.4-18.7
		c0-67.6,0-135.2,0-202.8c0.2-1.4,0.6-2.8,0.7-4.2c1.2-11.1,3.7-21.9,8.4-31.9c20.5-43.1,54.7-66.1,102.5-66.7
		c61.9-0.8,123.8-0.2,185.7-0.2c19.4,0,37.9,4.2,54.6,14.1c37.5,22.1,56.7,55.2,56.9,98.7c0.3,61.1,0.2,122.2,0,183.2
		c0,7.7-0.4,15.5-2.1,23c-10.1,45.1-37.6,74-82.1,86.5C1328.6,1663.6,1322.1,1664.1,1315.9,1665.2z M1394.9,1460.8
		c0-30.5,0.1-60.9-0.1-91.4c0-6.9-0.5-13.9-2-20.6c-9.6-41.4-43.7-68.4-86.2-68.4c-61.5-0.1-123-0.1-184.4,0.1
		c-6.6,0-13.4,0.5-19.8,2c-41.4,9.7-68.4,43.7-68.4,86.2c-0.1,61.5-0.1,122.9,0.1,184.4c0,6.5,0.5,13.1,1.9,19.4
		c9,40.8,43.5,68.7,85.5,68.8c62,0.2,124,0.1,186,0c12.5,0,24.7-2.2,36-7.6c33.6-16.3,50.9-43.3,51.4-80.6
		C1395.3,1522.3,1394.9,1491.5,1394.9,1460.8z"/>
	<path d="M1214.5,1572.6c-61.4,0.1-111.8-50.2-111.9-111.7c-0.1-61.4,50.2-111.8,111.7-111.9c61.4-0.1,111.8,50.2,111.9,111.7
		C1326.3,1522.1,1276,1572.5,1214.5,1572.6z M1302.3,1461.2c0.3-48.2-39.2-87.9-87.6-88.2c-48.1-0.2-87.6,38.9-88.1,87.3
		c-0.5,48.1,38.9,87.9,87.4,88.4C1262.1,1549.1,1301.9,1509.6,1302.3,1461.2z"/>
	<path d="M1328.9,1375.4c-18,0-33-15-33-33c0-18,15.1-33.1,33-33c17.9,0,33,15.1,33.1,33C1362,1360.3,1346.9,1375.3,1328.9,1375.4z
		 M1329.1,1333.4c-4.7-0.1-9,3.9-9.2,8.7c-0.2,4.7,3.8,9,8.6,9.3c4.9,0.3,9.3-4,9.4-8.9C1338,1337.7,1333.9,1333.5,1329.1,1333.4z"
		/>
</g>
<g>
	<path d="M1442.7,397.6c-3.5,8.3-9.7,11.3-18.6,11.1c-20.1-0.4-40.2-0.1-60.3-0.1c-10.8,0-16.5-5.7-16.5-16.5
		c0-46.6,0-93.1-0.1-139.7c0-5-0.5-10.1-1.1-15.1c-1.7-13.1-10.3-20.7-21.6-25.4c-17.2-7.1-34.7-1.8-45.5,13.3
		c-4.6,6.4-6.8,13.8-7.1,21.7c-0.2,7-0.2,14.1-0.2,21.1c0,41.6,0,83.3,0,124.9c0,10.2-5.2,15.6-15.4,15.6c-23.8,0.1-47.6,0.1-71.4,0
		c-10.3,0-15.4-5.2-15.4-15.4c0-82.6,0-165.2,0-247.8c0-10.8,5.2-16,16.2-16c20.9,0,41.8,0.3,62.7-0.2c9.1-0.2,17.5,6.7,16.5,16.6
		c-0.2,1.8,0,3.6,0,6.2c1.2-0.9,2-1.4,2.5-2c18.5-18.7,41.2-27.1,67.1-27.5c14.7-0.2,29.3,0,43.4,5c33.5,11.9,54.1,35.4,62.4,69.8
		c1.1,4.5,1.7,9.1,2.5,13.6C1442.7,273,1442.7,335.3,1442.7,397.6z M1184.1,143.1c0,84,0,167.8,0,251.6c24.9,0,49.6,0,74.7,0
		c0-1.9,0-3.5,0-5c0-37.3,0-74.5,0-111.8c0-11-0.2-22.1,0.3-33.1c1.1-26.8,23.4-48.6,50.2-49.3c21.3-0.5,41.9,12.2,48,31
		c2.5,7.8,3.5,16.4,3.6,24.7c0.5,46.2,0.5,92.3,0.7,138.5c0,1.7,0,3.4,0,5.4c1.9,0,3.2,0,4.5,0c19.4,0,38.9-0.1,58.3,0.1
		c3.9,0,4.8-1.1,4.8-4.9c-0.1-56.3-0.1-112.6-0.1-168.9c0-4.4-0.2-8.8-0.8-13.1c-4.8-32.2-21.8-55-52.4-67.2
		c-13.2-5.2-27-5.3-40.9-5c-25.5,0.5-46.6,9.9-63,29.9c-5.8,7.1-13.1,12.9-20.2,19.7c0-14.3,0-28.4,0-42.6
		C1229.1,143.1,1206.8,143.1,1184.1,143.1z"/>
	<path d="M1040.7,268.6c0-38.6,0-77.1,0-115.7c0-3.3,0.3-6.7,1.1-9.8c2.2-8,9.3-13.7,17.6-13.7c18.9-0.2,37.8-0.2,56.7,0
		c10.3,0.1,18.9,8.6,19.8,18.9c0.1,1.6,0.1,3.2,0.1,4.8c0,77.4,0,154.8,0,232.2c0,14.8-8.4,23.3-23.2,23.3c-16.4,0-32.7,0-49.1,0
		c-14.5,0-23.1-8.5-23.1-23C1040.7,346.6,1040.7,307.6,1040.7,268.6z M1122.5,269.5c0-38.7,0-77.4,0-116.1c0-8.3-2.2-10.5-10.3-10.5
		c-16.2,0-32.5,0-48.7,0c-7.1,0-9.2,2-9.2,9.3c0,77.8,0,155.6,0,233.4c0,6.9,2.5,9.4,9.4,9.4c16.4,0,32.7,0,49.1,0
		c7.5,0,9.6-2.2,9.6-9.8C1122.5,346.6,1122.5,308,1122.5,269.5z"/>
	<path d="M1142.9,61.2c-1.2,32.6-26,55.7-58.4,54.4c-28.4-1.2-51.7-27.6-50.5-57.3c1.1-29.1,27-52.6,56.2-51.8
		C1121.4,7.3,1144.4,35.5,1142.9,61.2z M1129.2,61.1c0-22.5-18.2-41.1-40.3-40.9c-23.2,0.2-41.2,17.9-41.4,40.7
		c-0.2,23.4,18.4,41.1,43.1,41.1C1108.2,102,1129.5,85.8,1129.2,61.1z"/>
</g>
<g>
	<path d="M320.4,243c-5.2,9-10,18.2-15.6,26.9c-4.9,7.5-12.8,10.2-21.4,11.6c-14,2.2-27.6,0.1-40.9-4.4
		c-20.3-6.8-38.1-18.1-54.8-31.4c-26.7-21.3-50.5-45.4-70.4-73.2c-10.6-14.8-19.4-30.6-24.6-48.2c-3.1-10.6-4.6-21.3-3.4-32.4
		c0.8-7.8,2.2-15.4,7.7-21.5c1.9-2,4-3.9,6.3-5.4c6.5-4.1,13.1-8,19.7-11.9c1.6-0.9,3.4-1.5,5.1-2.2c1.5,0,3,0,4.5,0
		c5.1,1.3,8.3,4.9,11.2,9.2c9.4,14.4,19,28.6,28.5,42.9c3.9,5.8,3.8,12-0.2,17c-0.9,1.1-2,2.1-3.1,2.9c-5.1,4.1-10.3,8.1-15.5,12.1
		c-3.7,2.9-4.2,5.4-2,9.6c6.3,12.2,14.6,23,24,33c11.6,12.3,23.6,24.4,37.7,34c4.6,3.1,9.5,5.8,14.3,8.5c3.3,1.9,6,1.1,8.5-2.1
		c3.9-5,7.9-10.1,11.8-15.2c6.1-7.8,13.1-8.9,21.2-3.5c14,9.4,28,18.8,42.1,28c4.3,2.8,7.8,6,9.1,11.2
		C320.4,240,320.4,241.5,320.4,243z M273.8,274.7c2-0.2,5.7-0.5,9.4-1c7.9-1.1,14-4.9,18-12.1c3.1-5.7,6.6-11.1,10-16.7
		c2.5-4.1,1.8-7.1-2.2-9.8c-14.8-9.9-29.7-19.8-44.5-29.7c-4.2-2.8-7-2.4-10.1,1.6c-4.1,5.3-8.2,10.6-12.4,15.9
		c-4.7,6-11.4,7.4-18.1,3.8c-3.6-1.9-7.1-3.9-10.6-6c-12.4-7.7-23-17.5-33.3-27.7c-13.6-13.5-26.3-27.7-35.2-45
		c-3.9-7.5-2.7-14,4-19.2c5.3-4.1,10.6-8.2,15.9-12.4c3.3-2.6,3.9-5.6,1.6-9.1c-10.1-15.3-20.3-30.6-30.6-45.9
		c-2.1-3.2-5.3-3.8-8.7-1.9c-6.3,3.7-12.5,7.5-18.8,11.3c-5,3-8.3,7.3-9.7,13c-2.9,11.5-2.2,23,0.7,34.4
		c4.7,18.7,14.1,35.1,25.2,50.6c14.7,20.5,31.9,38.6,50.5,55.6c16.7,15.2,34.5,29,54.9,38.9C243.1,270.1,257,274.5,273.8,274.7z"/>
	<path d="M224,81.9c31.4,1.5,59.9,24,67.4,56.5c1.2,5.2,1.5,10.7,2,16.1c0.2,2.5-1.4,4.2-3.5,4.4c-2.1,0.1-3.8-1.5-4.1-4
		c-0.3-3.2-0.3-6.5-0.9-9.7c-4-23.6-17.1-40.3-38.8-50.3c-6.9-3.2-14.2-4.9-21.8-5.2c-1.5-0.1-3-0.2-4.5-0.4
		c-2.2-0.3-3.4-1.8-3.4-3.8c0.1-2.1,1.3-3.4,3.3-3.6C221.1,81.7,222.5,81.9,224,81.9z"/>
	<path d="M222.5,105.1c26.1,1.2,46.9,22.4,47.7,48.7c0.1,3.2-1.3,5.1-3.7,5.2c-2.3,0-3.8-1.7-3.9-4.8c-0.9-18.5-11.7-33.2-29-39.1
		c-3.5-1.2-7.3-1.5-11-2.1c-0.7-0.1-1.4-0.1-2-0.1c-2.9-0.4-4.3-1.9-4.1-4.3c0.2-2.2,1.9-3.4,4.8-3.3
		C221.6,105,222.1,105.1,222.5,105.1z"/>
	<path d="M221.6,128.2c13.7,0.4,25.5,12.6,25.6,26.2c0,2.7-1.5,4.5-3.7,4.6c-2.1,0.1-3.8-1.5-4-4c-0.5-6-2.6-11.1-7.4-14.9
		c-3.2-2.6-6.9-3.9-11-4.1c-3.3-0.2-4.8-1.8-4.6-4.3C216.6,129.1,218.3,128.1,221.6,128.2z"/>
</g>
<g>
	<path d="M1972.2,1139.8c65.6,0,131.2,0,196.8,0c29.6,0,53,18.2,59.2,46.1c1.1,5,1.5,10.3,1.5,15.4c0.1,88,0.1,175.9,0,263.9
		c0,36.3-25.1,61.6-61.2,61.6c-130.9,0-261.7,0-392.6,0c-31.6,0-55.3-19.6-60.4-49.8c-0.6-3.5-0.6-7.1-0.6-10.7
		c0-88.7-0.1-177.4,0-266c0-29.4,17.4-52.1,45.1-58.8c5.5-1.3,11.3-1.7,17-1.7C1842,1139.8,1907.1,1139.8,1972.2,1139.8z
		 M2212.2,1217.6c-2.3,1.8-3.7,2.8-5,3.9c-64.9,55-129.8,110-194.6,165.1c-11.1,9.4-23.5,15.3-38.3,15.9c-17.7,0.7-31.9-6.8-45.1-18
		c-64-54.4-128.1-108.6-192.3-162.9c-1.4-1.2-2.8-2.2-4.9-3.9c0,3.2,0,5.1,0,7.1c0,49.3,0,98.7,0,148c0,31.3,0,62.6,0,93.9
		c0,7.2,1.1,14,5.3,21.2c1.7-2,2.9-3.5,4.2-4.9c36.7-37.6,73.5-75.2,110.2-112.7c6.1-6.2,11-7.3,15.2-3.4c4.4,4,3.4,9.3-2.7,15.6
		c-37.4,38.2-74.7,76.4-112.1,114.6c-1.2,1.2-2.2,2.5-3.5,3.9c8.8,7,18.7,8.6,29.1,8.6c109.8,0,219.5,0,329.3,0
		c20.4,0,40.8,0,61.1,0c10,0,19.4-1.8,27.5-8.6c-1.4-1.4-2.4-2.6-3.6-3.8c-37.6-38.3-75.2-76.5-112.7-114.8
		c-1.4-1.4-2.8-2.8-3.9-4.4c-2.3-3.8-2.1-7.6,1.1-10.7c3.2-3.2,7-3.4,10.7-0.9c1.8,1.1,3.3,2.8,4.8,4.3
		c37,37.6,73.9,75.2,110.9,112.8c1.3,1.3,2.7,2.5,4.3,4c4.4-7.6,5-15.4,5-23.3c0-79.9,0-159.8,0-239.7
		C2212.2,1222.5,2212.2,1220.6,2212.2,1217.6z M1972.5,1157.2c-65.2,0-130.5,0-195.7,0c-23.1,0-40.4,13.5-43.9,33.7
		c-0.6,3.2,0.4,4.8,2.7,6.7c69.4,58.7,138.8,117.6,208.3,176.3c18.3,15.5,38.9,15.2,57.3-0.4c67.5-57.2,134.9-114.4,202.4-171.6
		c9.6-8.2,10.1-10,4.4-21.5c-1.6-3.2-3.6-6.2-5.9-8.9c-9.1-10.7-21.2-14.4-34.9-14.4C2102.3,1157.2,2037.4,1157.2,1972.5,1157.2z"/>
</g>
<g>
	<path d="M255.1,407.9c8.2,1.6,16.6,2.5,24.6,4.8c33,9.4,57.5,29.7,73.6,59.9c9.7,18.2,13.7,37.8,13.6,58.4c-0.1,14.9,0,29.8,0,44.7
		c0,16.2-9.9,26.2-26.1,26.2c-4,0-8,0-12.5,0c-2.3,21.6-9.9,40.7-25.3,56.4c4.3,8.7,8.4,17.1,12.8,25.5c0.7,1.3,2.5,2.3,3.9,2.8
		c11.9,4.1,24,7.8,35.8,12.1c32.7,12.1,54.2,35.6,67,67.5c5.2,12.9,7.7,26.5,8,40.5c0.2,7-2.8,10.1-9.8,10.1
		c-115.9,0-231.8,0-347.7,0c-6.7,0-10-3.2-9.7-9.8c2.7-47.1,23.5-83.2,66.4-104.4c13.3-6.6,28.1-10.3,42.4-15c3.7-1.2,6.1-3,7.7-6.6
		c2.9-6.5,6.2-12.9,9.6-19.3c1.2-2.3,1.1-3.7-0.7-5.9c-4.3-5.4-8.7-10.9-11.9-16.9c-2.2-4.1-4.5-5.2-8.8-5.1
		c-10.3,0.1-18.5-4.4-22.5-14.1c-1.9-4.5-2-9.8-2.3-14.8c-0.2-2.8-0.6-4.6-3.5-6.1c-7.9-4.1-12.4-11.1-12.4-20
		c-0.1-20.6-0.9-41.3,0.7-61.8c3.2-38.7,22-68.8,54.5-90.1c16.5-10.9,34.8-16.8,54.6-18.4c0.6-0.1,1.3-0.4,1.9-0.5
		C244.5,407.9,249.8,407.9,255.1,407.9z M318.6,543.9c-8.8-1.6-17-2.7-25-4.6c-23.8-5.7-44.9-16.9-63.2-33.3c-1.1-1-3-2-4.4-1.9
		c-10.1,0.9-19.3,4.4-27.6,10.4c-9.2,6.6-15,16-21.7,24.8c-0.7,0.9-0.8,2.5-0.7,3.8c1.4,15.6,2.6,31.3,4.3,46.9c1,9.3,3,18.5,4.5,28
		c7.4,0,14-0.1,20.6,0.1c2.3,0.1,3.4-0.8,4.4-2.9c4.3-8.2,11.2-12.6,20.5-13.1c5.7-0.3,11.4-0.2,17.2,0
		c13.4,0.5,23.5,10.9,23.5,23.9c0,13.1-10.3,23.5-23.9,23.9c-4.9,0.1-9.8,0-14.8,0c-10.4,0-18.1-4.5-22.9-13.8c-0.4-0.8-1.3-2-2-2
		c-4.8-0.2-9.6-0.1-14.7-0.1c5.5,10.7,17,21.4,28.6,26.5c38.2,16.6,77.6-5.5,87.8-44.4c3.5-13.2,4.8-26.9,6.5-40.5
		C317.1,565.1,317.6,554.6,318.6,543.9z M233.2,800.6c-21.7-31.6-42.9-62.4-54.7-98.5c-10.1,3.4-19.5,6.7-29,9.6
		c-30.4,9.5-50.6,29.8-62.6,58.8c-4,9.5-6.5,19.5-6.9,30.1C130.9,800.6,181.4,800.6,233.2,800.6z M261.1,800.4
		c51.8,0,102.4,0,153.4,0c-3.6-31-16.9-56.2-41.8-75c-16.8-12.6-37.4-15.9-57-23.5C303.9,738.2,282.7,769,261.1,800.4z M318.6,527.4
		c3.1-28.4-14.1-56.4-40.2-66.9c-13.2-5.3-26.8-4.9-40.5-4.6c-25.8,0.7-49.1,17.2-58.2,41.4c-1.8,4.9-2.9,10-4.3,15
		c0.6,0.4,1.1,0.7,1.7,1.1c0.5-0.9,0.9-2,1.6-2.7c13.1-13.9,29.2-21.2,48.2-22.8c4.9-0.4,8.7,0.9,12.2,4.3
		C261.4,513.3,288.1,524.4,318.6,527.4z M350.3,519.5c-3-53.2-50.7-96.6-104.4-95.6c-58.4,1.1-99.4,47.5-102,95.6
		c1,0.1,2.1,0.2,3.1,0.2c4,0,7.9,0,12.1,0c0.1-1.6,0.2-2.9,0.4-4.2c3.6-34.8,21.6-58.6,54.3-71.1c14.8-5.7,30.4-5.1,45.7-4.2
		c34.2,2,63.5,26.1,72.2,59.1c1.7,6.6,2.5,13.5,3.8,20.3C340.3,519.5,345.2,519.5,350.3,519.5z M247.1,793.2
		c9.5-14.4,18.6-28.3,27.9-42.2c1.3-1.9,0.7-3-0.7-4.4c-8.8-8.7-17.5-17.5-26.2-26.2c-0.5-0.5-1.2-0.9-1.9-1.4
		c-9,9.5-17.9,18.9-26.7,28.3c-0.6,0.7-0.8,2.6-0.3,3.3C228.3,764.7,237.6,778.7,247.1,793.2z M285.4,734
		c5.5-13.4,11-26.7,16.5-40.1c0.3-0.7,0.1-1.9-0.2-2.6c-3.2-6.7-6.6-13.3-10.1-20.4c-11.5,12.1-22.7,24-33.6,35.5
		C266.9,715.5,275.7,724.4,285.4,734z M201.1,674.2c-1.7,3.3-3,6.9-5.1,9.9c-4.1,5.9-3.9,11.4-0.9,17.7c5,10.5,9.4,21.3,14.3,32.6
		c9-9.5,17.2-18.2,25.3-26.8C223.4,696.5,212.4,685.5,201.1,674.2z M331.1,585.9c3.8,0,7.4,0.1,10.9,0c5.7-0.2,8.8-3.3,8.9-9
		c0.1-6.5,0-13,0-19.5c0-7.1,0-14.3,0-21.5c-5.6,0-10.8,0-15.9,0C333.7,552.6,332.4,569,331.1,585.9z M143.4,535.7
		c0,14.4-0.1,28.5,0.1,42.5c0.1,4.3,3.1,7.2,7.3,7.5c4.1,0.3,8.2,0.1,12.4,0.1c-1.3-16.9-2.7-33.4-4-50.1
		C153.9,535.7,148.9,535.7,143.4,535.7z M239.1,617.9c-2.7,0-5.3-0.2-8,0c-4.6,0.3-7.9,3.7-7.9,7.9c0,4.2,3.3,7.7,8,7.9
		c5.3,0.2,10.6,0.2,16,0c4.6-0.2,7.9-3.7,7.9-7.9c0-4.2-3.3-7.6-8-7.9C244.4,617.7,241.8,617.9,239.1,617.9z M232.6,681.1
		c4.1,4.1,9,9,14,14.1c4.1-4.3,8.5-9,13.3-14.1C250,681.1,240.9,681.1,232.6,681.1z M159.7,602c-1.4,9.5,0.4,16.1,8.9,15.5
		c-0.9-5.2-1.9-10.3-2.8-15.5C163.6,602,161.7,602,159.7,602z"/>
	<path d="M391.2,771.4c-0.2,3.9-1.7,6.5-5,7.9c-3.5,1.4-6.6,0.6-8.9-2.4c-1.9-2.5-3.1-5.6-5.1-8c-4.5-5.2-9.2-10.2-14-15.2
		c-2.2-2.4-4.2-5.1-2.7-8.1c1.2-2.3,3.5-4.7,5.9-5.7c1.7-0.7,4.9,0.2,6.6,1.4c9.6,7.2,17,16.4,22.3,27.1
		C390.9,769.4,391,770.6,391.2,771.4z"/>
	<path d="M342.9,732.1c0,4.2-3.8,7.9-7.9,7.9c-4.2,0-7.9-3.8-7.9-7.9c0-4.2,3.8-7.9,7.9-7.9C339.1,724.1,342.9,727.9,342.9,732.1z"
		/>
</g>
<g>
	<path d="M146.8,1208.9c-6.2,3.1-12.1,5.4-18.9,4.2c-7.8-1.4-13.6-5.5-17-12.6c-3-6-5.8-12.1-8.5-18.3c-5.1-11.4-0.7-24.2,10.4-30.1
		c4.7-2.5,9.6-4.8,14.6-6.8c11.4-4.7,21-11.8,29.3-20.9c13.9-15.5,28-30.9,41.9-46.4c0.9-1,1.3-3.1,1-4.5c-2-8.4,2.1-16.7,10.1-19.8
		c7.9-3,16.7,0.3,20.6,8.1c4.6,9.3,8.8,18.7,13.3,28.2c2.1-0.3,4.2-0.7,6.2-0.8c5.2-0.2,9.8,1.8,13.8,4.9
		c11.5,9.1,17.3,21.1,17.6,35.6c0.2,8-2.4,15-9.8,19.5c4.5,9.5,8.8,18.9,13.2,28.2c2.1,4.5,2.8,9,1,13.7c-2.4,6.3-7.1,10-13.7,10.7
		c-6.3,0.7-11.4-1.8-15.3-6.9c-0.9-1.2-2.6-2.5-3.9-2.4c-24.1,1.1-48.1,2.4-72.1,3.6c-0.4,0-0.7,0.1-1.7,0.3
		c1.2,1.7,2.3,3.1,3.4,4.5c3.8,4.9,7.7,9.8,11.5,14.8c4.5,6,3,12.4-3.8,15.8c-2.8,1.4-5.6,2.7-8.4,4.1c-6.7,3.3-11.5,2.5-16.2-3.3
		c-5.5-6.8-10.7-13.8-16-20.8C148.4,1211,147.7,1210.1,146.8,1208.9z M250.5,1183.3c-15.4-32.9-30.5-65.2-45.8-97.8
		c-3.7,4.1-7,7.9-10.4,11.5c-13.8,14.7-27.6,29.4-41.3,44.2c-0.7,0.8-0.8,3-0.3,4.1c5.5,12.1,11.2,24.1,16.9,36.2
		c2.9,6.3,2.9,6.3,9.7,5.4c1.1-0.1,2.2-0.2,3.4-0.3c15.9-0.8,31.9-1.6,47.8-2.4C236.8,1184,243.3,1183.7,250.5,1183.3z
		 M216.4,1062.4c-4.8-0.1-8,2.8-7.8,6.7c0.1,1.7,0.7,3.4,1.4,4.9c17.6,37.7,35.2,75.3,52.8,113c0.4,0.9,0.8,1.8,1.4,2.6
		c2,2.9,5.5,3.8,8.6,2.3c3.2-1.5,4.7-5,3.5-8.4c-0.4-1.1-0.8-2.1-1.3-3.1c-9-19.3-18.1-38.5-27.1-57.8
		c-8.6-18.3-17.1-36.5-25.6-54.8C220.9,1064.9,219.1,1062.6,216.4,1062.4z M143.4,1148.3c-8.8,4.1-17.4,7.9-25.7,12
		c-7.3,3.6-9.8,11.2-6.4,18.7c2.6,5.7,5.2,11.3,7.9,16.9c3.3,6.7,10.3,10,17.2,7.1c9-3.8,17.7-8.3,26.7-12.6
		C156.5,1176.3,150.1,1162.5,143.4,1148.3z M266.9,1140.5c6.1-4.1,5.7-16.8,0.2-27.2c-5.2-9.8-12.6-15.2-19.4-13.8
		C254.1,1113.1,260.4,1126.7,266.9,1140.5z M186.6,1222.8c-6-7.7-11.6-15-17.3-22.2c-0.5-0.6-1.8-1.2-2.4-1
		c-3.7,1.5-7.4,3.2-11.4,4.9c5.9,7.7,11.3,14.9,16.9,21.9c0.7,0.9,2.9,1.6,4,1.2C179.7,1226.4,182.9,1224.6,186.6,1222.8z"/>
	<path d="M362.3,1090.1c-5.6-0.8-12.5-1.9-19.4-2.7c-1.6-0.2-3.5,0.2-4.9,0.9c-16.3,9.5-33.9,13.5-52.6,13.6c-2.6,0-5.6,0-6.3-2.8
		c-0.5-1.9,0.3-4.6,1.4-6.4c6.3-9.6,10-20.3,13.1-31.2c0.3-1.2-0.5-3.1-1.4-4.2c-15.9-18.6-23.8-40.1-23.6-64.5
		c0.4-46.8,36.5-87.2,82.9-92.9c50.6-6.3,95.8,26.2,106.1,76.2c10.9,52.6-26.6,105.5-79.9,112.6
		C373.2,1089.3,368.4,1089.6,362.3,1090.1z M293.3,1091.8c11.9,0.2,28.4-4.7,41.2-12.6c2.7-1.7,5.2-2.5,8.4-1.6
		c11.8,3.2,23.8,3.4,36,1.5c45.9-7.3,78.6-53.9,69.7-99.5c-9.3-47.4-51.5-77.1-99.2-69.6c-38.4,6-69.5,40.9-71,79.7
		c-1,24.5,6.6,45.9,23.4,63.8c2.4,2.6,3.1,5.2,1.9,8.5C300.2,1071.7,296.8,1081.7,293.3,1091.8z"/>
	<path d="M424.4,1002.4c0,7.5-6.2,13.6-13.6,13.5c-7.4-0.1-13.5-6.3-13.4-13.8c0.1-7.5,6.2-13.3,13.8-13.2
		C418.6,989,424.4,995,424.4,1002.4z M410.8,997.1c-2.9,0.1-5.2,2.4-5.1,5.3c0,2.8,2.5,5.2,5.3,5.3c3,0,5.4-2.6,5.3-5.6
		C416,999.2,413.7,997.1,410.8,997.1z"/>
	<path d="M303.6,1002.3c0-7.6,5.9-13.4,13.6-13.4c7.4,0,13.4,6,13.4,13.3c0.1,7.4-6.1,13.7-13.5,13.7
		C309.7,1016,303.6,1009.9,303.6,1002.3z M322.4,1002.4c0-2.8-2.3-5.2-5.2-5.3c-3-0.1-5.3,2.1-5.4,5c-0.1,3,2.3,5.6,5.3,5.6
		C319.9,1007.7,322.4,1005.2,322.4,1002.4z"/>
	<path d="M363.9,988.9c7.4-0.1,13.4,5.7,13.5,13.1c0.1,7.5-5.7,13.7-13.2,13.9c-7.3,0.2-13.7-6-13.8-13.4
		C350.3,995.1,356.4,989,363.9,988.9z M369.3,1002.2c-0.1-2.9-2.4-5.1-5.4-5c-2.9,0.1-5.3,2.4-5.2,5.2c0,2.9,2.7,5.5,5.6,5.3
		C367.1,1007.5,369.3,1005,369.3,1002.2z"/>
</g>
<g>
	<path class="st0" d="M677.6,247.8c-4.1-0.1-6.6,1.8-6.9,5.2c-0.2,3.4,2.1,5.7,6.1,6c11.9,1,19.7,8.7,20.7,20.5
		c0.3,4.1,2.5,6.5,5.8,6.3c3.3-0.2,5.4-2.8,5.4-6.8C708.5,262.6,694,248.1,677.6,247.8z M677.6,199.1c16.1-0.2,30.2-14,31.2-30.5
		c0.3-4.5-1.8-7.4-5.3-7.6c-3.4-0.2-5.5,2.2-5.9,6.7c-0.9,11.3-9.1,19.3-20.3,20.1c-4.3,0.3-6.8,2.6-6.5,6
		C670.9,197.2,673.5,199.2,677.6,199.1z M703.5,203c-2,1.2-3.6,1.8-4.8,3c-8.2,8.1-8.2,22.8-0.1,31.1c2.6,2.7,5.3,3,7.9,0.9
		c2.7-2.3,2.9-5.1,0.6-8.2c-1-1.4-2.1-2.8-2.7-4.4c-1.6-4.5-0.2-8.4,2.5-12.2c1.1-1.5,1.6-4.3,1-6
		C707.5,205.6,705.2,204.5,703.5,203z M565.9,219.4c-0.1-3.1-2.8-5.5-6-5.3c-3,0.2-5.3,2.7-5.2,5.7c0.1,2.9,2.7,5.4,5.6,5.4
		C563.3,225.2,566,222.5,565.9,219.4z M563.3,184.2c-2.9,0-5.6,2.5-5.6,5.3c-0.1,2.9,2.7,5.8,5.6,5.8c2.9,0,5.4-2.4,5.5-5.4
		C569,186.9,566.4,184.3,563.3,184.2z M892.8,202c-3.1,0-5.7,2.6-5.6,5.6c0.1,2.9,2.7,5.5,5.5,5.5c2.9,0,5.6-2.9,5.6-5.8
		C898.3,204.4,895.8,202,892.8,202z M785.6,59.8c-3.1,0-5.7,2.6-5.6,5.7c0.1,2.9,2.7,5.4,5.6,5.4c3-0.1,5.5-2.5,5.6-5.4
		C791.3,62.4,788.7,59.8,785.6,59.8z M670.2,384.1c3.2-0.1,5.8-2.6,5.6-5.7c-0.1-2.9-2.7-5.4-5.6-5.4c-3.1,0-5.6,2.7-5.6,5.8
		C664.8,381.9,667.2,384.2,670.2,384.1z M887.1,272.4c3-0.1,5.8-2.9,5.7-5.8c-0.1-2.9-2.6-5.3-5.6-5.4c-3.1,0-5.6,2.5-5.5,5.7
		C881.7,270,884.2,272.5,887.1,272.4z M564.5,278.2c-0.1,2.9,2.4,5.6,5.3,5.6c3,0.1,5.7-2.5,5.8-5.6c0-2.9-2.5-5.5-5.5-5.5
		C567.2,272.7,564.6,275.3,564.5,278.2z M702.8,57c0-2.9-2.6-5.3-5.6-5.3c-3.1,0-5.6,2.6-5.6,5.7c0.1,3,2.6,5.5,5.5,5.5
		C700,62.8,702.8,59.9,702.8,57z M727.2,60.1c3-0.1,5.4-2.5,5.4-5.5c0-3.2-2.5-5.6-5.7-5.5c-3.1,0.1-5.3,2.3-5.3,5.5
		C721.5,57.9,723.9,60.2,727.2,60.1z M577.1,161.2c0-3-2.3-5.5-5.4-5.5c-3.1-0.1-5.7,2.3-5.7,5.2c0,3,2.8,5.9,5.7,5.9
		C574.6,166.7,577.1,164.1,577.1,161.2z M892.3,243c2.9,0.1,5.8-2.6,5.9-5.5c0-2.9-2.3-5.4-5.4-5.5c-3.2-0.1-5.7,2.2-5.8,5.4
		C887,240.4,889.4,242.9,892.3,243z M562.7,243.9c-3-0.1-5.6,2.2-5.8,5.2c-0.2,3,2.5,5.9,5.5,5.9c2.7,0,5.5-2.8,5.6-5.6
		C568.2,246.5,565.8,244,562.7,243.9z M893.1,178c-0.1-3.1-2.5-5.5-5.5-5.5c-3.1,0-5.7,2.7-5.6,5.8c0.1,2.9,2.7,5.2,5.8,5.2
		C890.9,183.5,893.2,181.1,893.1,178z M758.8,380c-3,0-5.6,2.5-5.6,5.4c-0.1,3,2.7,5.6,5.8,5.6c3,0,5.4-2.5,5.3-5.6
		C764.2,382.3,761.8,380,758.8,380z M699,391.7c3.2,0,5.8-2.6,5.7-5.7c-0.1-3-2.6-5.3-5.6-5.3c-3.1,0-5.4,2.3-5.4,5.5
		C693.7,389.4,695.9,391.7,699,391.7z M734.5,388.6c0-3.3-2.3-5.6-5.6-5.6c-3,0-5.4,2.4-5.4,5.4c0,3,2.3,5.5,5.3,5.6
		C732,394.2,734.4,391.9,734.5,388.6z M781.9,377c-0.1,3.1,2.2,5.5,5.3,5.6c3.1,0.2,5.5-2,5.7-5.1c0.2-3.2-2.3-5.9-5.4-5.9
		C784.6,371.5,782,374,781.9,377z M668.5,59.7c-3.1-0.1-5.5,2.1-5.7,5.2c-0.2,3.2,2.4,5.9,5.5,5.9c2.9,0,5.4-2.5,5.5-5.5
		C673.9,62.2,671.7,59.8,668.5,59.7z M756.7,51.7c-3,0-5.4,2.5-5.5,5.5c0,3,2.4,5.6,5.3,5.6c3.1,0,5.8-2.7,5.7-5.7
		C762.2,54.1,759.7,51.7,756.7,51.7z"/>
	<path d="M535.2,69.6c1.9-2.9,4.6-3.8,8-3.7c9.3,0.2,18.7,0.1,28.5,0.1c0-4.1,0-8,0-11.8c0-6-0.1-12,0-18c0.1-4.2,2.1-6.2,6.2-6.2
		c11.6-0.1,23.2-0.1,34.8,0c4.5,0,6.4,2.1,6.4,6.8c0,15.6,0,31.2,0,46.8c0,1.3,0,2.7,0,4.6c1.7,0,3,0,4.3,0c8.2,0,16.5,0,24.7,0
		c5.6,0,7.5,1.8,7.5,7.3c0,11.2,0,22.5,0,33.7c0,5.3-1.9,7.2-7.2,7.2c-14.3,0-28.7,0-43,0c-20.8,0-41.7-0.1-62.5,0
		c-3.4,0-6.1-0.8-7.7-4C535.2,111.6,535.2,90.6,535.2,69.6z M607.7,125c0-28.1,0-55.9,0-83.6c-8.3,0-16.4,0-24.6,0
		c0,27.9,0,55.7,0,83.6C591.4,125,599.4,125,607.7,125z M546.6,124.9c8.4,0,16.6,0,24.7,0c0-16,0-31.8,0-47.5c-8.4,0-16.5,0-24.7,0
		C546.6,93.3,546.6,109,546.6,124.9z M619.4,124.9c8.5,0,16.6,0,24.9,0c0-8.6,0-16.8,0-25.3c-8.3,0-16.5,0-24.9,0
		C619.4,108.1,619.4,116.4,619.4,124.9z"/>
	<path d="M535.2,348.8c2.1-2.7,4.8-3.7,8.1-3.3c1.9,0.2,2.8-0.3,3.2-2.5c4.3-23.3,20.4-39,43.8-42.9c0.2,0,0.4-0.2,0.9-0.4
		c0.8-4.1-1.1-10.6,6-10.5c6.9,0.1,5,6.3,5.6,10.4c25.8,4.9,40.9,20.1,45.6,45.7c4.3,1,11.2-1.7,11.3,5.8c0,7.4-6.8,5.1-11.3,5.9
		c-0.7,3-1.2,6.1-2.2,9c-6.7,19.4-19.9,31.5-40,35.7c-2.8,0.6-3.9,1.4-3.6,4.2c0.4,3.4-0.9,5.8-3.9,7.3c-1.2,0-2.5,0-3.7,0
		c-4.1-2.6-3.4-7-3.7-10.6c-24.6-5.2-40-19.1-45-43.7c-0.2-0.9-2-2-3-2c-3.3,0-6.1-0.8-8.1-3.5C535.2,351.8,535.2,350.3,535.2,348.8
		z M631.7,371.6c10.5-15.5,6.6-38.5-9.1-51.8c-15.3-12.8-38.5-11.9-52.9,2.1c-14.1,13.7-16.9,36.9-6.9,49.5c3.9-4.2,8-8.6,12.7-13.7
		c-3.8-10.6-1.6-20.6,7.1-27.6c8-6.3,18.8-6.9,27.2-1.4c4.3,2.8,7.4,6.6,9.3,11.4c2.7,6.7,2,13.4,0.1,17.6
		C623.8,362.9,627.7,367.2,631.7,371.6z M623,381.7c-3.2-6.6-8.2-11.1-14.7-14c-5.4-2.4-6.1-6-2.3-10.5c4.7-5.4,4.5-12.7-0.3-17.5
		c-4.7-4.6-12-4.7-16.9-0.1c-5.1,4.7-5.3,12-0.7,17.5c4.1,4.9,3.4,8.3-2.5,10.9c-5.5,2.5-9.8,6.3-13,11.4c-1,1.6-1.1,2.6,0.6,4
		C586.9,394.4,609.5,393.8,623,381.7z"/>
	<path d="M843.6,413.2c-4.2-2-8.2-4.4-9.8-9.1c-0.7-2.1-1.5-4.6-1-6.5c0.9-3.5,0-5.4-2.9-7.6c-5.7-4.3-8.1-10.4-8.9-17.5
		c-0.4-3-1.6-6.4-3.5-8.7c-15.5-18.6-14.8-47.5,1.9-64.7c17.9-18.4,45.9-20.3,65.5-4.6c3.7,3,4.5,6.1,2.3,8.9
		c-2.2,2.8-5.5,2.8-9.2-0.1c-22.3-17-53.6-6.1-59.5,21c-2.6,11.9-0.1,22.8,7.8,32.2c3.8,4.5,5.9,9.3,6.1,15.2
		c0.2,8.6,6.9,13.6,16.6,12.4c0-10.9,0-21.7,0-33.1c-2.5,0-4.8,0.1-7.1,0c-3.4-0.1-5.6-2.2-5.8-5.1c-0.2-3.1,2-5.9,5.4-5.9
		c8.8-0.2,17.7-0.2,26.6,0c3.5,0.1,5.6,2.6,5.5,5.8c-0.1,3.2-2.3,5.2-6,5.3c-2.2,0.1-4.4,0-6.8,0c0,11.3,0,22.1,0,32.8
		c8.5,2.1,16.3-3.4,16.5-11.9c0.2-5.9,2.2-10.8,6-15.3c7.1-8.4,10-18.2,8.7-29.2c-0.5-4,1.4-6.8,4.7-7.2c3.2-0.4,5.7,1.6,6.3,5.4
		c1.9,13.8-1.6,26.2-10.2,37.1c-2.6,3.3-4.1,6.5-4.3,10.8c-0.4,7.5-4.2,13.4-10.2,17.9c-0.8,0.6-1.7,2.1-1.5,3.1
		c1.4,9-1.4,14.2-10.1,18c-0.2,0.1-0.3,0.3-0.5,0.5C858.6,413.2,851.1,413.2,843.6,413.2z M854.8,402c2.5,0,5,0.3,7.4-0.1
		c1.3-0.3,2.4-1.8,3.6-2.8c-1.1-1-2.2-2.9-3.4-3c-5.1-0.3-10.2-0.3-15.3,0c-1.1,0.1-2.1,1.8-3.1,2.8c1.1,1.1,2.1,2.8,3.3,3
		C849.8,402.3,852.3,402,854.8,402z"/>
	<path d="M679.5,151.7c3.3,1.7,5.2,3.8,4.2,7.3c-1,3.4-3.6,4-6.7,4.2c-14.4,0.7-25.1,11.6-26.4,26.6c-0.2,2.8-0.8,5.2-3.8,6.3
		c-4.2,1.5-7.9-1.8-7.4-6.9c1.4-16.6,9.7-28.2,25-34.6c1.9-0.8,2.9-1.7,3.5-3.7c3.7-12.3,12-20,24.5-22.7c12.7-2.8,23.6,1,32.3,10.9
		c0.6,0.7,1.1,1.3,1.7,2c0.1,0.1,0.2,0,0.6,0.1c0.5-0.5,1-1.2,1.6-1.8c8.6-10.1,19.6-13.9,32.5-11.1c12.5,2.7,20.6,10.4,24.6,22.7
		c0.5,1.5,2,3,3.4,3.6c15.7,6.9,24.5,18.8,24.9,35.9c0.5,20.8,0.5,41.7,0,62.5c-0.4,17.1-9.3,29-25,35.9c-1.3,0.6-2.8,1.8-3.2,3
		c-3.9,12.7-12.3,20.7-25.2,23.4c-13.4,2.7-24.6-1.6-33.1-12.4c-0.2-0.2-0.3-0.4-0.8-0.8c-0.8,0.9-1.6,1.8-2.4,2.7
		c-8.7,9.7-19.5,13.3-32.1,10.5c-12.3-2.7-20.6-10.2-24.3-22.4c-0.6-2.1-1.6-3.2-3.7-4.1c-15.8-6.7-24.2-18.7-25-35.8
		c-0.4-10.2-0.1-20.5-0.1-30.7c0-4.4,2.2-6.8,5.8-6.7c3.5,0.1,5.4,2.3,5.4,6.6c0,9.6,0,19.2,0,28.8c0.1,16.6,10.7,28.1,27.3,29.2
		c2.9,0.2,5.1,1.3,5.9,4.2c1,3.6-1,5.6-3.9,7.1c2.8,8.6,11.8,14.2,21.4,13.3c10-0.9,18.1-8.3,19.5-17.8c0.3-1.7,0.4-3.5,0.4-5.2
		c0-40,0-80.1,0-120.1c0-13.8-9.4-23.4-22.5-22.9C689.7,138.9,683.4,143.4,679.5,151.7z M773.9,291.6c-3.8-2.9-4.8-4.8-4-7.5
		c1.2-3.8,4.2-4,7.5-4.2c14.1-0.9,25.4-12.7,25.6-27.4c0.3-20.6,0.2-41.2,0-61.7c-0.1-10.7-5-19.1-14.5-24.1
		c-3.8-2-8.5-2.7-12.8-3.5c-2.8-0.5-5.1-1.4-5.8-4.4c-0.7-2.9,0.5-5.1,3.1-6.5c0.4-0.2,0.7-0.6,1.1-0.9c-3.8-8.1-10-12.5-18.8-12.9
		c-13.3-0.6-22.7,9-22.8,23.1c0,39.9,0,79.8,0,119.7c0,1.2,0,2.5,0.2,3.7c1,10.3,8.2,17.8,18.7,19.4
		C760.9,305.9,769.9,300.8,773.9,291.6z"/>
	<path d="M907.5,57c-1.3,3.4-2.5,6.5-3.7,9.6c-1.4,3.6,0.2,7.5,3.9,9c11.6,5,10.7,3.4,10.7,16.3c0,0.4-0.1,0.8,0,1.1
		c1.4,7.4-1.8,11.6-8.9,13.8c-4.7,1.4-6.9,6.7-4.6,10.9c3.9,6.9,2.8,12.2-3.5,16.7c-0.3,0.2-0.5,0.5-0.8,0.8
		c-8.2,8.2-6.8,8.7-18.1,4c-3-1.2-8.5,0.9-9.7,3.9c-4.8,12.3-4.2,10.1-15.7,10.3c-12.5,0.2-10.7,1.2-15.6-9.9c-2-4.4-5.4-5.8-9.8-4
		c-10.8,4.4-9.3,5-17.9-3.6c-9-9-8.9-7-4.1-19c1.4-3.6-0.3-7.5-3.9-9.1c-11.3-4.9-10.7-2.9-10.8-16.3c0-0.2,0-0.5,0-0.7
		c-1.3-7.5,1.5-12,9-14.1c4.8-1.4,6.4-6.6,4.5-11.4c-0.4-1-0.7-2.1-1.3-3.1c-2.2-4.1-1.5-7.5,2.1-10.6c2.9-2.5,5.5-5.4,8.2-8.2
		c2.2-2.3,4.6-2.8,7.4-1.6c1.5,0.7,3,1.2,4.5,1.8c5.3,2.1,9.6,0.3,11.8-5.1c0.7-1.6,1.4-3.2,2-4.8c1.1-2.6,3.1-3.8,5.8-3.8
		c4.7,0,9.5,0,14.2,0c2.8,0,4.7,1.3,5.8,3.9c0.9,2.1,1.8,4.1,2.7,6.1c1.9,4.4,5.5,5.9,9.9,4.1c11.4-4.9,10-4.1,17.9,3.6
		c1.8,1.7,3.6,3.4,5.3,5.3C906,54.1,906.6,55.6,907.5,57z M834.1,126.6c5.5-0.1,14.9,6.1,16.9,10.4c0.9,1.8,1.6,4.3,3.2,5.2
		c3.4,1.8,7.4-0.1,8.6-3.9c1.4-4.4,3.8-7.5,8.6-8.2c0.7-0.1,1.5-0.4,2.1-0.8c4.5-3.2,9.1-2.9,13.6-0.2c2.4,1.4,3.8,0.5,5.4-1.3
		c1.5-1.7,3.6-2.9,2-5.9c-1.3-2.4-3-5.9-2.2-8c2.6-6.7,2.9-15.5,12.5-17.2c2.7-0.5,2.7-2.5,2.5-4.6c-0.2-2.1,0.8-4.6-2.4-5.4
		c-6.2-1.5-10.2-5.3-11.7-11.6c-0.2-0.8-1-1.5-1.1-2.4c-0.3-1.9-0.6-3.9-0.3-5.7c0.3-1.9,1.1-3.8,2.1-5.5c1.8-3.2-0.9-4.3-2.4-6.2
		c-1.5-1.9-3-1.9-5.1-1c-2.9,1.2-6.5,3.2-9.1,2.4c-6.5-2-14.1-3.6-15.7-12.3c-0.6-3.3-3.1-3.1-5.6-3.2c-2.6-0.1-4.2,0.6-4.9,3.3
		c-1.2,5.2-4.3,8.5-9.7,9.5c-0.6,0.1-1.2,0.4-1.7,0.7c-4.2,3-8.4,2.6-12.6,0.2c-2.4-1.4-4.2-1-6.1,1.2c-1.7,2-3.3,3.4-1.5,6.3
		c2.6,4.2,3,8.6,0.1,12.9c-0.4,0.6-0.7,1.4-0.8,2.1c-0.8,5-3.8,7.9-8.5,9.2c-2.6,0.8-4,2-3.9,5.2c0.1,3.2,1.1,4.8,4.1,6
		c2.7,1,6,2.4,7.3,4.6c3.6,6.3,7,13.1,2,20.4c-1.9,2.8,1,3.9,2.3,5.4c1.2,1.5,2.4,2.6,4.7,1.4C829.3,128.3,832.1,127.4,834.1,126.6z
		"/>
	<path d="M677.6,247.8c16.4,0.3,30.9,14.8,31.2,31.3c0.1,4-2,6.6-5.4,6.8c-3.3,0.2-5.5-2.2-5.8-6.3c-1-11.8-8.8-19.6-20.7-20.5
		c-4-0.3-6.4-2.6-6.1-6C671,249.7,673.5,247.8,677.6,247.8z"/>
	<path d="M677.6,199.1c-4.1,0.1-6.7-1.9-6.9-5.2c-0.2-3.4,2.2-5.7,6.5-6c11.2-0.8,19.4-8.9,20.3-20.1c0.4-4.4,2.5-6.9,5.9-6.7
		c3.6,0.2,5.6,3.1,5.3,7.6C707.8,185.1,693.7,198.9,677.6,199.1z"/>
	<path d="M703.5,203c1.7,1.5,4,2.6,4.5,4.2c0.6,1.8,0.1,4.5-1,6c-2.8,3.8-4.2,7.6-2.5,12.2c0.6,1.6,1.7,3,2.7,4.4
		c2.3,3.1,2.1,5.9-0.6,8.2c-2.6,2.1-5.3,1.8-7.9-0.9c-8.1-8.3-8.1-23,0.1-31.1C699.9,204.9,701.6,204.2,703.5,203z"/>
	<path d="M565.9,219.4c0.1,3.1-2.5,5.8-5.6,5.8c-2.9,0-5.5-2.5-5.6-5.4c-0.1-3,2.2-5.5,5.2-5.7C563.1,213.9,565.8,216.3,565.9,219.4
		z"/>
	<path d="M563.3,184.2c3.1,0,5.6,2.7,5.5,5.8c-0.1,2.9-2.7,5.4-5.5,5.4c-2.9,0-5.7-2.9-5.6-5.8C557.8,186.7,560.4,184.2,563.3,184.2
		z"/>
	<path d="M892.8,202c3.1,0,5.5,2.3,5.5,5.3c0,3-2.7,5.8-5.6,5.8c-2.8,0-5.4-2.6-5.5-5.5C887.1,204.6,889.7,202,892.8,202z"/>
	<path d="M785.6,59.8c3.1,0,5.7,2.6,5.6,5.7c-0.1,2.8-2.7,5.3-5.6,5.4c-2.9,0.1-5.5-2.4-5.6-5.4C779.9,62.4,782.5,59.8,785.6,59.8z"
		/>
	<path d="M670.2,384.1c-3,0.1-5.4-2.3-5.5-5.3c-0.1-3.1,2.5-5.8,5.6-5.8c2.9,0,5.5,2.5,5.6,5.4C676,381.5,673.4,384.1,670.2,384.1z"
		/>
	<path d="M887.1,272.4c-2.9,0.1-5.4-2.4-5.4-5.4c-0.1-3.2,2.4-5.7,5.5-5.7c3,0,5.5,2.4,5.6,5.4C892.9,269.5,890.1,272.3,887.1,272.4
		z"/>
	<path d="M564.5,278.2c0.1-2.9,2.7-5.5,5.6-5.5c3,0,5.5,2.5,5.5,5.5c0,3.1-2.7,5.7-5.8,5.6C566.9,283.7,564.4,281.1,564.5,278.2z"/>
	<path d="M702.8,57c0,2.9-2.8,5.8-5.7,5.8c-2.9,0-5.4-2.5-5.5-5.5c-0.1-3.1,2.5-5.7,5.6-5.7C700.2,51.7,702.8,54.2,702.8,57z"/>
	<path d="M727.2,60.1c-3.3,0.1-5.7-2.2-5.7-5.5c0-3.2,2.2-5.4,5.3-5.5c3.2-0.1,5.7,2.3,5.7,5.5C732.6,57.7,730.2,60,727.2,60.1z"/>
	<path d="M577.1,161.2c0,3-2.6,5.6-5.5,5.6c-2.9,0-5.7-3-5.7-5.9c0-2.9,2.7-5.3,5.7-5.2C574.8,155.7,577.1,158.1,577.1,161.2z"/>
	<path d="M892.3,243c-2.9-0.1-5.3-2.6-5.3-5.6c0.1-3.2,2.6-5.5,5.8-5.4c3,0.1,5.4,2.6,5.4,5.5C898.2,240.4,895.3,243.1,892.3,243z"
		/>
	<path d="M562.7,243.9c3.1,0.1,5.5,2.6,5.4,5.5c-0.1,2.8-2.9,5.5-5.6,5.6c-3,0-5.7-2.8-5.5-5.9C557.1,246.1,559.7,243.8,562.7,243.9
		z"/>
	<path d="M893.1,178c0.1,3.1-2.2,5.5-5.3,5.6c-3.1,0-5.6-2.3-5.8-5.2c-0.2-3.1,2.5-5.8,5.6-5.8C890.7,172.5,893.1,174.9,893.1,178z"
		/>
	<path d="M758.8,380c3.1,0,5.5,2.4,5.5,5.4c0.1,3.1-2.3,5.5-5.3,5.6c-3.1,0-5.9-2.6-5.8-5.6C753.2,382.4,755.8,380,758.8,380z"/>
	<path d="M699,391.7c-3.1,0-5.4-2.4-5.3-5.5c0-3.1,2.3-5.4,5.4-5.5c3.1,0,5.5,2.3,5.6,5.3C704.8,389.1,702.2,391.8,699,391.7z"/>
	<path d="M734.5,388.6c0,3.3-2.4,5.6-5.7,5.4c-3-0.1-5.3-2.6-5.3-5.6c0-3,2.4-5.4,5.4-5.4C732.2,383,734.5,385.3,734.5,388.6z"/>
	<path d="M781.9,377c0.1-3,2.6-5.5,5.6-5.4c3.1,0,5.6,2.8,5.4,5.9c-0.2,3.1-2.6,5.3-5.7,5.1C784.1,382.4,781.9,380,781.9,377z"/>
	<path d="M668.5,59.7c3.1,0.1,5.4,2.4,5.2,5.5c-0.1,3-2.6,5.5-5.5,5.5c-3.1,0-5.6-2.7-5.5-5.9C663,61.9,665.5,59.6,668.5,59.7z"/>
	<path d="M756.7,51.7c3,0,5.5,2.4,5.6,5.4c0.1,3-2.6,5.7-5.7,5.7c-2.9,0-5.4-2.6-5.3-5.6C751.3,54.2,753.7,51.8,756.7,51.7z"/>
	<path d="M744.9,279.1c0.2-16.4,14.7-31,31.1-31.3c4.1-0.1,6.7,1.8,6.9,5.2c0.3,3.5-2.1,5.7-6.5,6.1c-11.4,0.8-19.4,8.9-20.4,20.5
		c-0.3,4.1-2.5,6.5-5.8,6.4C746.9,285.8,744.8,283.1,744.9,279.1z"/>
	<path d="M775.8,199.1c-16.4-0.4-30.9-15.1-30.9-31.5c0-3.7,2-6.3,5.2-6.6c3.3-0.3,5.6,2.2,6,6.2c1,11.9,8.8,19.7,20.6,20.7
		c4.1,0.3,6.4,2.5,6.3,5.9C782.8,197.3,780.2,199.2,775.8,199.1z"/>
	<path d="M760.9,221.5c-0.1,6-2,11.1-6,15.4c-2.6,2.8-5.7,3.2-8.3,1c-2.5-2-2.6-5.2-0.3-8.3c4.3-5.8,4.3-10.5,0-16.2
		c-2.3-3.1-2.3-6.2,0.2-8.3c2.6-2.3,5.8-1.9,8.5,1.2C759,210.7,760.8,215.9,760.9,221.5z"/>
	<path d="M830.1,90.9c0-14.6,11.8-26.4,26.4-26.4c14.5,0,26.3,12,26.3,26.9c0,14.4-11.7,26.1-26.2,26.1
		C841.9,117.6,830.1,105.7,830.1,90.9z M856.6,106.3c8.3,0,15-6.7,14.9-15c0-8.7-6.9-15.6-15.3-15.6c-8.3,0.1-15,7-14.9,15.5
		C841.4,99.7,848.2,106.4,856.6,106.3z"/>
</g>
<g>
	<path d="M184.2,1494.7c-17.3-13.1-36.4-18.5-57.2-17.4c-28.5,1.5-51.3,13.6-68.6,37c-10.2,13.7-14.6,28.8-15.8,45.4
		c-0.1,0.8,0,1.7-0.1,2.5c-0.4,5.2-3.6,8.5-8.2,8.5c-4.6-0.1-7.9-3.5-7.9-8.7c0-14,3.1-27.4,8.7-40.2c4.9-11.2,11.2-21.7,20.3-29.9
		c11.7-10.5,24.1-20.5,41.1-24.9c-21.7-15.4-30.1-35.7-26.2-60.8c2-12.8,7.8-24.2,17.8-32.7c33.9-28.6,73.2-15.6,90.5,5.2
		c21.3,25.6,21,61.4-11.7,87.7c5.9,3,11.7,5.8,17.4,8.9c3.5,1.9,6.8,4.3,10.4,6.1c1.3,0.6,3.7,0.8,4.6,0.1
		c15-12.5,32.2-20.6,50.5-26.9c0.4-0.2,0.8-0.4,1.3-0.7c-34.6-21.3-49.8-56.1-40.2-92.5c8.7-33,38.7-59.6,78.1-61.7
		c35.4-1.9,71.1,18.9,83.6,53.2c4.5,12.5,6.1,25.2,4.7,38.3c-1.4,13.3-6.1,25.4-13.4,36.7c-7.2,11.1-17.3,19.1-29.7,26.3
		c21.6,5.4,39,16.4,54.9,28.2c10.4-5.6,20.4-11,30.8-16.6c-18.5-12.3-27.1-30.3-26.1-52.6c0.6-14.5,5.9-27.6,16.5-37.6
		c31-29.2,70.5-20.4,90.3,0.3c21.9,23,26.3,62.1-9.4,90.4c5.1,2.5,9.9,4.9,14.9,7.2c11.4,5.2,20.3,13.6,28.7,22.7
		c17,18.2,24.8,40,25.6,64.6c0.2,6.4-4.1,10.7-9.4,9.6c-4.9-1.1-6.4-4.5-6.8-9.3c-2-24.7-11-46.5-30.2-62.7
		c-27.8-23.4-65.5-28-97.4-12.5c-5.1,2.5-9.9,5.4-15.4,8.4c4.8,5.5,9.4,10,13,15.1c16.8,23.8,25.1,50.5,25.6,79.6
		c0.1,5.8-3.2,9.7-8,9.8c-4.6,0.1-7.8-3.3-8.1-9c-0.7-13.5-2.4-26.9-7.6-39.5c-7.9-19-18.3-36.6-34.1-49.9
		c-37.8-31.7-80.7-41.5-128.3-27.4c-26.4,7.8-47.6,23.2-64.8,45c-16.7,21.1-23.9,45.1-25.5,71.4c-0.3,5.8-2.7,8.8-7.2,9.4
		c-5.5,0.8-10-2.9-9.9-8.8c0.5-15.8,2.4-31.2,8.7-46.2c6.5-15.3,13.7-30,24.3-42.9C180.6,1499,182.2,1497.1,184.2,1494.7z
		 M361.4,1382.3c0.8-36.6-31-66.3-67.7-66.4c-37.2-0.1-68.6,27.6-68.5,66.5c0,37.8,31.2,65.6,67.6,65.9
		C329.4,1448.7,362.1,1418.9,361.4,1382.3z M130.9,1460.7c24.6,0.3,44.8-18.8,45.1-42.9c0.3-24.7-18.9-43.8-43.9-44.7
		c-26.3-0.9-46.4,21.8-46.7,43.2C85,1437.7,104.9,1461.4,130.9,1460.7z M455.1,1460.6c24.9,0.3,44.8-18.7,45.2-43.3
		c0.4-24.2-19.3-43.7-44.3-44.2c-28-0.6-45.6,22.3-46.1,43.1C409.4,1437.3,427.7,1461,455.1,1460.6z"/>
</g>
<g>
	<path d="M1339.4,857.5c-2.7-0.8-5.5-1.5-8.1-2.5c-16-6.3-25.2-23.5-21.4-40.3c0.5-2.4,0.1-3.5-2-4.7c-8.4-4.4-16.7-9-24.9-13.7
		c-2.2-1.3-3.4-0.8-5,0.9c-39.2,40.5-102.8,36.4-136.6-8.7c-0.5-0.7-1.1-1.3-1.7-2.2c-5.9,3.8-11.6,7.5-17.5,11
		c-2.1,1.3-1.1,2.6-0.6,4.1c5.1,15.6,2.6,29.8-8.3,42.2c-12.4,14-33.2,17.5-49.9,8.7c-16.7-8.8-25.3-27.9-20.9-46.6
		c4.3-18,20.8-31.1,39.4-31.4c11.3-0.2,21,3.6,29.3,11.2c0.7,0.7,1.5,1.3,2.4,2.2c6.5-4.1,13-8.2,19.7-12.5
		c-15.3-34.6-11.2-66.8,11.7-97c-11.4-16.3-22.9-32.7-34.2-49c-5,1.3-9.7,3-14.6,3.8c-26.3,4-50.4-13.7-54.5-39.9
		c-0.2-1-0.5-1.9-0.7-2.9c0-3,0-6,0-9c1.5-5.1,2.3-10.6,4.6-15.3c9-18.8,24.3-28.6,45.1-27.9c20.2,0.6,34.9,10.9,42.5,29.6
		c7.7,18.8,3.9,36.2-9.6,51.3c-0.7,0.7-1.4,1.4-2.1,2.2c-0.1,0.1-0.1,0.2-0.4,0.6c5.4,7.7,10.9,15.6,16.4,23.4
		c5.5,7.9,11,15.7,16.4,23.4c5.9-3.9,11.5-7.6,17.2-11.3c1-0.7,2.2-1.2,3.3-1.7c4.5-2.1,8.3-1.2,9.9,2.4c1.6,3.5,0.1,6.9-4.2,9
		c-7.9,3.9-15.1,8.8-21.1,15.3c-20.6,22.1-27.5,48-18.3,76.7c9.3,29,29.8,46.9,59.9,52.2c47.5,8.3,90.1-28.5,89.4-76.7
		c-0.2-13.3-3.8-25.8-10.5-37.4c-0.5-0.9-1.1-1.7-1.5-2.6c-1.6-3.3-0.6-6.7,2.3-8.5c2.8-1.7,6.7-1,8.5,2c2.7,4.6,5,9.5,7.4,14.2
		c0.5,1,0.9,2,1.5,3.3c7.1-3.8,13.9-7.5,21.2-11.4c-6-18.6-3.9-36.2,8-52c7.7-10.2,18-16.8,30.5-19.7c25.9-6,51.9,7.2,62.3,31.5
		c10.3,23.9,1.9,51.7-19.8,66.4c-19.9,13.5-54.3,14.1-75.4-14.8c-7.2,3.9-14.4,7.8-21.6,11.8c-0.8,0.5-1.6,2-1.5,2.9
		c3.9,23-0.7,44.3-13.2,64.4c9.5,5.2,18.8,10.4,28.3,15.6c5.4-6.2,11.8-10.6,19.7-12.4c19.4-4.5,38.3,7.5,42.6,26.8
		c4.2,19-8,37.9-27.2,42.1c-0.8,0.2-1.6,0.5-2.4,0.8C1345.9,857.5,1342.6,857.5,1339.4,857.5z M1328.2,675.2
		c0,22.8,18.5,41.5,41.3,41.5c22.8,0.1,41.8-18.9,41.6-41.7c-0.1-22.8-18.8-41.3-41.6-41.3C1346.8,633.8,1328.2,652.4,1328.2,675.2z
		 M1123.9,585.9c0-19.3-15.5-35-34.8-35.1c-19.3-0.2-35.3,15.7-35.2,35.1c0,19.3,15.6,35,34.8,35.1
		C1108.2,621.1,1123.9,605.4,1123.9,585.9z M1082.5,786.9c-16,0-28.8,12.8-28.6,28.8c0.1,15.9,12.8,28.4,28.6,28.5
		c16,0,28.7-12.8,28.6-28.8C1111.1,799.6,1098.4,786.9,1082.5,786.9z M1344.2,799.7c-12.5,0-22.4,9.8-22.4,22.2
		c0,12.2,9.8,22.2,22,22.3c12.5,0.1,22.5-9.7,22.6-22C1366.4,809.7,1356.6,799.8,1344.2,799.7z"/>
	<path d="M1334.5,561.5c-0.2,23.1-7.7,42-18.1,59.8c-16.5,28.1-38.2,51.7-62.6,72.9c-5,4.4-11.5,4.8-16.4,0.5
		c-29.7-25.9-55.9-54.5-72.2-91c-12.6-28.3-13.1-56.6,2.4-84.1c18.8-33.5,56.5-50.8,94.7-43.7c36.9,6.8,65.9,37.4,71.3,75.3
		C1334.1,555.2,1334.3,559.3,1334.5,561.5z M1245.4,684.9c25.7-22.7,48.2-47.5,64.2-77.7c5.9-11.2,10.3-23,11.8-35.6
		c5.8-51.5-42-94.1-92.5-82.7c-45.7,10.3-70.9,56.6-55.3,101.3c6.6,18.9,17.4,35.5,29.7,51.2
		C1215.7,657.1,1229.7,671.5,1245.4,684.9z"/>
	<path d="M1209.4,799.7c-30.8-2.9-53.4-23.4-59-53.6c-0.5-2.9-0.7-5.9-0.9-8.9c-0.2-4.5,2.2-7.4,5.9-7.6c4-0.3,6.6,2.3,6.8,7.1
		c0.8,17.2,7.9,30.9,21.9,41c7.9,5.7,16.8,8.6,26.5,9.2c1.4,0.1,2.8,0.1,4.1,0.4c3,0.7,4.8,2.7,4.9,5.8c0.2,3.1-1.3,5.4-4.3,6.2
		C1213.4,799.7,1211.4,799.5,1209.4,799.7z"/>
	<path d="M1245.4,506.2c31.9,0.2,57.5,26,57.2,57.8c-0.2,31.5-26.2,57.1-57.8,56.9c-31.6-0.2-57.2-26.1-57-57.7
		C1188.1,531.5,1213.7,506.1,1245.4,506.2z M1200.6,563.7c0.1,24.7,20.2,44.7,44.9,44.6c24.4-0.1,44.4-20.3,44.4-44.8
		c0-24.6-20.2-44.6-45-44.5C1220.3,519.2,1200.5,539.1,1200.6,563.7z"/>
</g>
<g>
	<path d="M1817.2,548.3c8,0,16,0,24,0c4.6,0.5,9.1,1,13.7,1.7c43,6.6,80.2,24.4,110.2,56.4c43.8,46.6,60.9,101.8,50.6,164.8
		c-14.2,86.6-88.2,149.8-173.8,156.6c-36.3,2.9-70.6-4.5-102.9-21.2c-1.4-0.7-3.4-0.9-4.9-0.5c-32.9,8.5-65.8,17.1-98.7,25.6
		c0-0.5,0-1,0-1.5c0.4-1,1-2,1.3-3c8.3-30.2,16.7-60.5,24.8-90.8c0.5-1.9,0.1-4.5-0.8-6.2c-21.7-39.9-28.5-82.4-20.5-127
		c14.8-82.6,81.1-138.8,155.7-151.8C1802.9,550.1,1810.1,549.3,1817.2,548.3z M1681.4,885.6c1.7-0.4,2.7-0.5,3.7-0.8
		c17.5-4.5,35-9,52.4-13.7c2.8-0.7,4.8-0.3,7.3,1.1c36.6,21.9,75.8,29,117.5,19.6c80.4-18.2,138.1-94.5,121.5-183.6
		c-15.1-81.1-92.1-137.3-173.8-127.5c-47.2,5.7-84.8,28-112,66.9c-22.8,32.6-32.1,69-27.6,108.8c2.8,24.7,11.5,47.3,25.1,68.1
		c1.4,2.2,1.8,4.1,1,6.6c-2.5,8.4-4.7,16.8-7,25.2C1686.8,865.8,1684.2,875.4,1681.4,885.6z"/>
	<path d="M1877.7,828.7c-12.3,0.4-23.3-4.6-34.6-8.5c-32.2-11.1-57.1-32-78.4-57.9c-10.2-12.4-20.4-24.8-27.2-39.7
		c-7.1-15.6-9.9-31.6-2.6-47.7c3.2-6.9,8-13.1,12.6-19.3c2.8-3.8,7.1-5.5,11.8-5.6c4.2-0.2,8.5-0.1,12.7,0.1
		c3.6,0.2,5.5,2.8,6.8,5.7c2,4.2,3.7,8.5,5.5,12.7c3.5,8.4,6.9,16.8,10.6,25.1c1.5,3.4,1.5,6.6-0.6,9.6c-3.6,4.9-7.2,9.9-11,14.6
		c-4.1,5.1-4.3,6.4-1,11.9c15.2,25.3,36.2,43.8,63.7,54.9c5.7,2.3,7.8,1.9,11.7-2.8c4.5-5.5,9-11,13.4-16.6c3.1-3.9,4.9-4.8,9.6-3.1
		c4.3,1.5,8.5,3.5,12.7,5.3c8.5,3.7,17,7.4,25.4,11.2c5.3,2.4,5.8,3.7,5.7,9.6c-0.3,25.4-20,36.5-38.7,39.9
		C1883.2,828.7,1880.4,828.6,1877.7,828.7z"/>
</g>
</svg>
