<svg xmlns="http://www.w3.org/2000/svg" viewBox="0 0 91.34 91.35">
    <g id="Layer_2" data-name="Layer 2">
        <g id="Layer_1-2" data-name="Layer 1">
            <path
                d="M68.31,91.35H23c-1-.15-1.94-.24-2.89-.46C10,88.61,3.55,82.49.75,72.52A41,41,0,0,1,0,68.34V23.05c.05-.32.12-.63.16-.95A21.75,21.75,0,0,1,2,15C6.62,5.37,14.26.22,24.93.09c13.82-.17,27.64,0,41.46,0a23.65,23.65,0,0,1,12.2,3.14C87,8.12,91.25,15.51,91.3,25.22c.07,13.64,0,27.28,0,40.93a24.49,24.49,0,0,1-.47,5.13C88.58,81.35,82.44,87.8,72.51,90.59,71.14,91,69.71,91.1,68.31,91.35ZM86,45.69c0-6.8,0-13.6,0-20.41a21.49,21.49,0,0,0-.45-4.6A19.28,19.28,0,0,0,66.25,5.4q-20.59,0-41.19,0A19.45,19.45,0,0,0,5.36,25.11q0,20.6,0,41.18a20.34,20.34,0,0,0,.42,4.34A19.3,19.3,0,0,0,24.89,86c13.85,0,27.7,0,41.55,0a18.19,18.19,0,0,0,8-1.71c7.5-3.64,11.37-9.68,11.48-18C86,59.42,86,52.56,86,45.69Z" />
            <path
                d="M45.68,70.66a25,25,0,1,1,24.95-25A25.06,25.06,0,0,1,45.68,70.66ZM65.27,45.77A19.61,19.61,0,1,0,45.56,65.31,19.66,19.66,0,0,0,65.27,45.77Z" />
            <path
                d="M71.23,26.61a7.37,7.37,0,1,1,7.38-7.37A7.42,7.42,0,0,1,71.23,26.61Zm0-9.37a2,2,0,1,0,2,2A2.05,2.05,0,0,0,71.27,17.24Z" />
        </g>
    </g>
</svg>