<svg xmlns="http://www.w3.org/2000/svg" viewBox="0 0 1098.11 1098.11">
    <defs>
        <style>.cls-1{fill:none;stroke:#f2f2f2;stroke-miterlimit:10;stroke-width:40px;}</style>
    </defs>
    <g id="Layer_2" data-name="Layer 2">
        <g id="Layer_1-2" data-name="Layer 1">
            <path
                d="M749.52,958.35H348.38c-8.55-1.31-17.21-2.11-25.62-4C233.44,934.07,176,879.91,151.31,791.68c-3.37-12-4.5-24.66-6.66-37V353.6c.47-2.8,1.1-5.58,1.4-8.39,2.35-21.85,7.26-43.21,16.67-63C203.26,197,271,151.43,365.39,150.28c122.37-1.49,244.77-.41,367.16-.34,38.34,0,74.89,8.32,108,27.82,74.11,43.66,112.08,109.11,112.55,195.08.65,120.78.3,241.57,0,362.35,0,15.18-.84,30.72-4.13,45.46C929,869.81,874.65,927,786.66,951.66,774.61,955,761.92,956.18,749.52,958.35ZM905.87,554.11c0-60.25.24-120.51-.17-180.76-.1-13.59-.94-27.52-4-40.69-19.06-81.92-86.42-135.23-170.4-135.32q-182.37-.21-364.75.13c-13.06,0-26.45,1-39.13,4-81.92,19.09-135.24,86.41-135.34,170.38q-.21,182.34.13,364.67a181.32,181.32,0,0,0,3.71,38.38c17.77,80.75,86.11,135.82,169.1,136,122.63.32,245.27.1,367.91.06,24.77,0,48.85-4.27,71.16-15.11,66.38-32.26,100.6-85.72,101.61-159.42C906.54,675.68,905.87,614.89,905.87,554.11Z" />
            <path
                d="M549.12,775.16c-121.36.21-221-99.28-221.24-220.85-.21-121.34,99.3-221,220.89-221.21,121.37-.21,221,99.29,221.25,220.86C770.23,675.3,670.72,775,549.12,775.16Zm173.5-220.34c.65-95.24-77.46-173.86-173.18-174.33-95.06-.46-173.15,76.92-174.16,172.56-1,95.13,76.88,173.88,172.79,174.72C643.27,728.6,722,650.62,722.62,554.82Z" />
            <path
                d="M775.38,385.15c-35.58.06-65.3-29.62-65.31-65.24s29.77-65.36,65.25-65.35,65.31,29.83,65.36,65.29S810.94,385.09,775.38,385.15Zm.31-83c-9.34-.23-17.78,7.77-18.16,17.22-.37,9.29,7.56,17.81,17.05,18.33s18.43-7.88,18.54-17.62C793.22,310.66,785.15,302.36,775.69,302.12Z" />
            <circle class="cls-1" cx="549.05" cy="549.05" r="529.05" />
        </g>
    </g>
</svg>