<svg xmlns="http://www.w3.org/2000/svg" viewBox="0 0 91.29 89.84"><g id="Layer_2" data-name="Layer 2"><g id="Layer_1-2" data-name="Layer 1"><path d="M91.29,87.35a3.92,3.92,0,0,1-4.16,2.48c-4.49-.08-9,0-13.46,0-2.4,0-3.68-1.28-3.68-3.69q0-15.6,0-31.2a27,27,0,0,0-.25-3.36c-.38-2.93-2.3-4.63-4.84-5.68a8.21,8.21,0,0,0-10.16,3,8.66,8.66,0,0,0-1.59,4.84c0,1.57,0,3.15,0,4.72v27.9c0,2.28-1.16,3.48-3.43,3.48-5.32,0-10.64,0-16,0-2.31,0-3.43-1.15-3.43-3.45q0-27.67,0-55.35c0-2.42,1.16-3.58,3.6-3.58,4.67,0,9.33.08,14,0a3.43,3.43,0,0,1,3.68,3.7c0,.4,0,.82,0,1.38a5.83,5.83,0,0,0,.57-.43,20.58,20.58,0,0,1,15-6.15A27.3,27.3,0,0,1,76.8,27c7.49,2.65,12.08,7.91,13.94,15.6.24,1,.37,2,.55,3ZM33.54,30.5V86.69H50.22V85.57q0-12.48,0-25c0-2.47,0-4.94.06-7.4a11.59,11.59,0,0,1,11.22-11c4.76-.12,9.35,2.72,10.71,6.92a18.55,18.55,0,0,1,.8,5.51c.11,10.31.11,20.62.15,30.94v1.2h1c4.34,0,8.68,0,13,0,.87,0,1.08-.25,1.08-1.09,0-12.57,0-25.15,0-37.72A19.14,19.14,0,0,0,88.06,45C87,37.85,83.19,32.75,76.36,30c-3-1.17-6-1.17-9.14-1.12a17.72,17.72,0,0,0-14.06,6.69,55.32,55.32,0,0,1-4.5,4.4V30.5Z"/><path d="M1.52,58.55q0-12.91,0-25.84a8.59,8.59,0,0,1,.25-2.2,4.13,4.13,0,0,1,3.94-3.06q6.32-.07,12.65,0a4.6,4.6,0,0,1,4.42,4.22c0,.36,0,.71,0,1.07V84.59c0,3.32-1.87,5.21-5.17,5.22h-11c-3.24,0-5.16-1.91-5.16-5.15Q1.51,71.61,1.52,58.55Zm18.26.18V32.8c0-1.85-.48-2.34-2.3-2.34H6.61c-1.59,0-2,.45-2,2.08q0,26.06,0,52.13c0,1.53.56,2.09,2.1,2.09h11c1.68,0,2.15-.48,2.15-2.18Z"/><path d="M24.33,12.23a12.2,12.2,0,0,1-13,12.14C5,24.11-.25,18.2,0,11.57A12.34,12.34,0,0,1,12.57,0C19.53.19,24.66,6.49,24.33,12.23Zm-3.06,0A9.12,9.12,0,0,0,3,12.16c0,5.24,4.1,9.18,9.62,9.18A9.09,9.09,0,0,0,21.27,12.2Z"/></g></g></svg>