<svg xmlns="http://www.w3.org/2000/svg" viewBox="0 0 1098.11 1098.11"><defs><style>.cls-1{fill:none;stroke:#000;stroke-miterlimit:10;stroke-width:40px;}</style></defs><g id="Layer_2" data-name="Layer 2"><g id="Layer_1-2" data-name="Layer 1"><path d="M942.76,895.41c-6.71,16-18.68,21.8-35.87,21.47-38.68-.75-77.39-.22-116.09-.25-20.74,0-31.72-11-31.72-31.81Q759,750.27,759,615.73a229.56,229.56,0,0,0-2.17-29c-3.27-25.22-19.8-39.91-41.7-48.93-33.11-13.64-66.86-3.46-87.71,25.68-8.86,12.39-13.16,26.59-13.65,41.74-.44,13.57-.29,27.16-.3,40.74q0,120.33,0,240.65c0,19.69-10,30-29.59,30q-68.82.15-137.62,0c-19.92,0-29.65-9.94-29.65-29.75V409.42c0-20.88,10.07-30.89,31.11-30.9,40.24,0,80.49.67,120.7-.32,17.6-.43,33.79,12.84,31.74,31.9-.38,3.48-.06,7-.06,11.91a53.08,53.08,0,0,0,4.9-3.76c35.61-36,79.3-52.29,129.33-53.05,28.25-.43,56.48,0,83.51,9.54C882.36,397.6,922,443,938,509.24c2.09,8.63,3.19,17.5,4.75,26.26ZM444.68,405.12V889.79H588.49v-9.68q0-107.67,0-215.33c0-21.27-.33-42.57.51-63.82,2.06-51.7,45.13-93.69,96.78-95,41.07-1.05,80.67,23.43,92.44,59.63,4.88,15,6.68,31.63,6.85,47.55.95,89,1,177.9,1.31,266.85,0,3.23,0,6.46,0,10.42h8.76c37.43,0,74.85-.19,112.28.17,7.46.07,9.31-2.17,9.3-9.47q-.35-162.65-.22-325.3A172.34,172.34,0,0,0,915,530.5c-9.32-62-42-106-101-129.37-25.4-10.06-52.1-10.13-78.78-9.64-49.07.92-89.71,19.13-121.32,57.64-11.2,13.65-25.3,24.92-38.84,38v-82Z"/><path d="M168.44,647.05q0-111.45.09-222.91a72,72,0,0,1,2.17-18.94,35.74,35.74,0,0,1,33.94-26.46q54.57-.56,109.15,0c19.9.23,36.39,16.56,38.13,36.39.26,3,.2,6.14.2,9.22q0,223.68,0,447.36c0,28.59-16.14,44.9-44.6,45q-47.26.07-94.54,0c-28,0-44.5-16.46-44.53-44.36Q168.35,759.67,168.44,647.05ZM326,648.62V425c0-16-4.15-20.23-19.79-20.24H212.38c-13.73,0-17.64,3.9-17.64,17.94q0,224.82,0,449.65c0,13.24,4.86,18.06,18.11,18.09q47.28.08,94.55,0c14.49,0,18.54-4.2,18.54-18.86Q326,760.08,326,648.62Z"/><path d="M365.2,247.46c-2.35,62.87-50.05,107.32-112.41,104.73-54.69-2.26-99.62-53.21-97.37-110.4,2.21-56,52-101.25,108.31-99.75C323.79,143.64,368.06,198,365.2,247.46Zm-26.37-.21c.07-43.44-35.16-79.2-77.62-78.81-44.78.42-79.34,34.45-79.7,78.47-.36,45.16,35.36,79.2,83,79.15C298.39,326,339.45,294.76,338.83,247.25Z"/><circle class="cls-1" cx="549.05" cy="549.05" r="529.05"/></g></g></svg>