<svg xmlns="http://www.w3.org/2000/svg" viewBox="0 0 1098.11 1098.11"><defs><style>.cls-1{fill:none;stroke:#f2f2f2;stroke-miterlimit:10;stroke-width:40px;}</style></defs><g id="Layer_2" data-name="Layer 2"><g id="Layer_1-2" data-name="Layer 1"><path d="M561.63,314.51q124.76,0,249.5,0c37.56,0,67.15,23.06,75,58.48A91.65,91.65,0,0,1,888,392.58q.16,167.25.06,334.52c0,46-31.84,78.07-77.6,78.09q-248.82.07-497.65,0c-40,0-70.13-24.88-76.58-63.16a81.47,81.47,0,0,1-.79-13.54q-.06-168.61,0-337.24c0-37.3,22.06-66.1,57.17-74.51a94.14,94.14,0,0,1,21.54-2.14Q437.91,314.39,561.63,314.51ZM866,413.13c-2.88,2.27-4.64,3.57-6.3,5Q736.28,522.72,612.93,627.39c-14.08,12-29.85,19.45-48.53,20.18-22.44.89-40.49-8.66-57.12-22.8Q385.6,521.3,263.58,418.23c-1.74-1.47-3.58-2.83-6.21-4.9V610q0,59.49,0,119c0,9.08,1.41,17.76,6.69,26.85,2.12-2.48,3.62-4.47,5.34-6.23q69.84-71.47,139.72-142.91c7.72-7.88,13.91-9.27,19.22-4.37,5.53,5.11,4.35,11.86-3.44,19.82Q353.82,694.73,282.77,767.4c-1.49,1.53-2.85,3.19-4.41,5,11.17,8.91,23.7,10.84,36.84,10.84q208.7,0,417.37,0c25.83,0,51.66.06,77.49,0,12.62,0,24.61-2.31,34.87-10.93-1.72-1.82-3.09-3.31-4.52-4.76Q769,694.73,697.5,622a33.76,33.76,0,0,1-4.89-5.62c-3-4.78-2.67-9.59,1.4-13.6s8.9-4.25,13.61-1.2a37.38,37.38,0,0,1,6,5.45Q784,678.5,854.23,750c1.65,1.68,3.44,3.23,5.44,5.09,5.59-9.67,6.28-19.53,6.28-29.53V413.13ZM562.09,336.52q-124,0-248,0c-29.29,0-51.21,17.15-55.64,42.77-.71,4.11.55,6.14,3.37,8.53q132,111.69,264,223.46c23.24,19.64,49.25,19.28,72.63-.53Q726.67,502,854.91,393.19c12.2-10.35,12.77-12.72,5.61-27.19A56,56,0,0,0,853,354.76c-11.56-13.61-26.87-18.28-44.21-18.27Q685.44,336.58,562.09,336.52Z"/><circle class="cls-1" cx="549.05" cy="549.05" r="529.05"/></g></g></svg>