<svg xmlns="http://www.w3.org/2000/svg" viewBox="0 0 1098.11 1098.11"><defs><style>.cls-1{fill:none;stroke:#f2f2f2;stroke-miterlimit:10;stroke-width:40px;}</style></defs><g id="Layer_2" data-name="Layer 2"><g id="Layer_1-2" data-name="Layer 1"><path d="M900.39,802c-15.77,27.47-30.47,55.62-47.64,82.18-14.86,23-39.27,31.32-65.41,35.37-43,6.65-84.47.35-125.14-13.35-62.15-20.94-116.66-55.5-167.54-96-81.72-65.08-154.42-139-215.44-224-32.51-45.29-59.43-93.67-75.14-147.57-9.42-32.31-14.19-65.23-10.51-99,2.6-23.78,6.62-47.23,23.7-65.68a99.47,99.47,0,0,1,19.35-16.48c19.82-12.58,40.06-24.51,60.32-36.4,4.87-2.86,10.44-4.54,15.68-6.77h13.83c15.69,4.11,25.54,14.84,34.16,28,28.75,43.92,58.15,87.41,87.23,131.13,11.86,17.84,11.67,36.56-.59,51.88a57.8,57.8,0,0,1-9.5,9c-15.73,12.41-31.6,24.66-47.4,37-11.42,8.89-12.79,16.39-6.1,29.34,19.3,37.34,44.55,70.36,73.28,100.81,35.61,37.75,72.13,74.58,115.17,104,14,9.6,29,17.83,43.87,26.14,10.16,5.68,18.37,3.39,26-6.29,12.08-15.41,24-30.92,36.07-46.36,18.58-23.85,39.94-27.36,65-10.69,42.92,28.61,85.68,57.46,128.84,85.69,13.17,8.62,23.93,18.45,28,34.17Zm-142.7,96.84c6-.62,17.46-1.47,28.85-3,24.25-3.36,43-14.89,55.08-36.89,9.56-17.32,20.29-34,30.45-51,7.58-12.67,5.56-21.7-6.72-29.9q-68.08-45.46-136.2-90.86c-12.93-8.61-21.32-7.26-30.88,5-12.63,16.14-25.09,32.43-37.81,48.51-14.5,18.34-34.8,22.7-55.35,11.75-11-5.84-21.83-11.92-32.39-18.45-37.9-23.41-70.39-53.43-101.84-84.6C429.2,608,390.35,564.49,363.19,511.71c-11.79-22.91-8.12-42.74,12.2-58.58,16.17-12.61,32.42-25.1,48.51-37.81,10.2-8.06,11.88-17.12,4.81-27.79q-46.56-70.24-93.46-140.26c-6.49-9.71-16.31-11.75-26.47-5.74-19.22,11.37-38.33,22.92-57.46,34.44-15.32,9.22-25.45,22.41-29.79,39.81-8.8,35.25-6.74,70.35,2,105.24,14.38,57.19,43,107.43,77,154.83,44.89,62.63,97.71,118.18,154.54,170C506.16,792.38,560.55,834.41,623,864.89,663.76,884.76,706.29,898.21,757.69,898.85Z"/><path d="M605.25,309.13c96.14,4.53,183.24,73.45,206.17,172.87,3.7,16,4.45,32.77,6,49.23.72,7.75-4.14,13-10.82,13.43-6.47.42-11.7-4.51-12.47-12.14-1-9.84-1-19.82-2.67-29.54C779.26,430.7,739.07,379.64,672.9,349a176.74,176.74,0,0,0-66.76-15.89c-4.6-.2-9.21-.48-13.77-1.1-6.62-.91-10.54-5.4-10.3-11.66.25-6.45,3.85-10.34,10.11-11.13C596.48,308.7,600.89,309.13,605.25,309.13Z"/><path d="M600.91,380.11c79.83,3.53,143.52,68.51,145.87,148.81.28,9.75-4,15.64-11.47,15.78-7.14.13-11.59-5.3-12-14.73-2.8-56.7-35.68-101.61-88.68-119.74-10.73-3.67-22.45-4.49-33.73-6.54-2-.36-4.15-.16-6.2-.42-8.86-1.1-13.26-5.8-12.51-13.25.7-6.88,5.82-10.43,14.63-10.13C598.15,379.93,599.53,380,600.91,380.11Z"/><path d="M597.93,450.7c41.82,1.31,78.05,38.39,78.18,80,0,8.14-4.43,13.65-11.31,14-6.39.3-11.51-4.46-12.13-12.34-1.42-18.32-8.09-33.86-22.75-45.47a58.81,58.81,0,0,0-33.69-12.65c-10-.64-14.79-5.38-14.11-13.2C582.76,453.67,587.81,450.38,597.93,450.7Z"/><circle class="cls-1" cx="549.05" cy="549.05" r="529.05"/></g></g></svg>