<svg xmlns="http://www.w3.org/2000/svg" viewBox="0 0 1098.11 1098.11"><defs><style>.cls-1{fill:none;stroke:#000;stroke-miterlimit:10;stroke-width:40px;}</style></defs><g id="Layer_2" data-name="Layer 2"><g id="Layer_1-2" data-name="Layer 1"><path d="M523,106.37c19.5,3.18,39.23,5.32,58.46,9.71,71.94,16.4,132.7,52.59,183.11,106.22,43.45,46.22,72.91,100.36,89,161.61,12,45.59,14.84,92,10.69,139-5.77,65.28-27.75,124.6-65,178.37-24.53,35.37-54.56,65.4-88.51,91.68-1.49,1.15-2.9,2.43-4.71,3.95,9.34,14.69,22.39,25,37.4,32.84,9.35,4.88,19.18,8.9,29,12.87,11.88,4.81,18,12.74,17.72,26.11-.5,21.15-.13,42.32-.13,64.32-30.6,4.39-60.74,12.63-91.86,5-22.91-5.59-46.09-10.42-66.38-23.48-21.49-13.83-37.86-32.44-50.68-54.27-3.31-5.62-6.41-7.41-13.44-6.17-108.92,19.16-207-5.35-293-75.16-66-53.61-110.39-121.94-129-205-27.57-123.14-3.19-235.77,76.63-334.37,56.55-69.85,130.91-111,218.89-127.84,14.07-2.69,28.46-3.66,42.71-5.43ZM665.53,792.18a11.17,11.17,0,0,1,1.15-1.31c14.63-12.15,29.45-24.07,43.87-36.46,75.56-64.89,119.09-146.53,125-246.35,5.86-99.29-22-188.27-90-262.13-69.69-75.66-156.43-113.25-260-108.8-71.17,3.06-135.27,27.26-190.07,72.15-95.2,78-137,180.14-129.37,302.49a328.3,328.3,0,0,0,25.55,108.86q40.88,95.88,127,154.46c51.09,34.62,107.62,54.08,169.49,54.81,25.61.3,51.38-2.95,76.89-6,22.61-2.75,26.64-1.38,39.62,17.92,8,11.89,15.62,24.81,26.24,34,35.83,31,78.05,40.58,124.42,32.11,1.93-.36,4.6-3.68,4.72-5.74.49-8.66-.15-17.39.2-26.06.2-5-1.94-7.13-6.39-8.7C715.07,853.67,686.61,827.6,665.53,792.18Z"/><path d="M634.77,710.45c-43.23-48.12-94.45-78.7-161.57-79.7,0,14-.16,27.67.23,41.36.05,1.46,3.08,3.5,5.08,4.14,41.39,13.21,68.2,44.5,87.82,83.2-51,21.16-100.45,16.79-147.5-11.15-51.6-30.64-80.34-78.66-97.95-134.3-8.33-26.32-11.54-53.55-11.37-81.12.23-38.3-.26-76.62,1.26-114.87,1.74-44,12.54-86,36.34-123.55C378.9,244.36,421,207.54,482,198.93c49.69-7,93.73,7.58,131.06,40.52,50.9,44.91,78.2,101.86,82.15,169.67a1266,1266,0,0,1-.8,161.21c-2.85,41.41-17.75,78.54-40.37,112.86C648.13,692.22,641.58,700.87,634.77,710.45ZM630.35,664c17.36-22.67,33.45-64.32,34.2-93.65Q666.4,497,666,423.73c-.39-58.71-20.44-109.89-61.94-152.07C578.85,246,549,229.48,512.58,227.08c-46-3-82.63,16.48-113.6,48.58-38.86,40.28-56.05,89.79-58.49,144.59-1.67,37.41-1.18,74.94-1.24,112.41-.07,46,10.8,89.17,35,128.71,26.21,42.88,62.07,72.25,112.9,80,10.3,1.57,21.05.22,32.41.22-14.8-22.1-37.84-35.76-69.79-41.58-5.08-.93-6.64-2.74-6.59-7.85.25-25.53.11-51.07.11-76.6V601.45C514.88,595.92,577,616,630.35,664Z"/><circle class="cls-1" cx="549.05" cy="549.05" r="529.05"/></g></g></svg>