<svg xmlns="http://www.w3.org/2000/svg" viewBox="0 0 56.87 64.92"><g id="Layer_2" data-name="Layer 2"><g id="Layer_1-2" data-name="Layer 1"><path d="M30.2,0c1.51.25,3.05.41,4.54.75A27.67,27.67,0,0,1,49,9,28.66,28.66,0,0,1,55.9,21.58a31.24,31.24,0,0,1,.83,10.81,28.22,28.22,0,0,1-5,13.87,32.37,32.37,0,0,1-6.89,7.13l-.36.31a7.37,7.37,0,0,0,2.9,2.56c.73.37,1.5.69,2.26,1a2,2,0,0,1,1.38,2c0,1.64,0,3.29,0,5-2.38.34-4.73,1-7.15.39a16.16,16.16,0,0,1-5.16-1.83,12.16,12.16,0,0,1-3.94-4.22.86.86,0,0,0-1.05-.48,27.13,27.13,0,0,1-22.78-5.84,28,28,0,0,1-10-15.94c-2.15-9.58-.25-18.34,6-26a27.94,27.94,0,0,1,17-9.94C24.92.21,26,.14,27.15,0ZM41.28,53.33l.09-.1c1.14-.94,2.29-1.87,3.41-2.83A26.53,26.53,0,0,0,54.5,31.24a26.63,26.63,0,0,0-7-20.39A25,25,0,0,0,27.28,2.39,24.53,24.53,0,0,0,12.5,8C5.1,14.07,1.85,22,2.44,31.53a25.26,25.26,0,0,0,2,8.46,27.05,27.05,0,0,0,9.88,12,23.68,23.68,0,0,0,13.18,4.26,46.32,46.32,0,0,0,6-.47c1.76-.22,2.07-.11,3.08,1.39a12.39,12.39,0,0,0,2,2.64,11.08,11.08,0,0,0,9.68,2.5.6.6,0,0,0,.36-.44c0-.68,0-1.36,0-2a.61.61,0,0,0-.5-.68A12.81,12.81,0,0,1,41.28,53.33Z"/><path d="M38.89,47c-3.36-3.74-7.35-6.12-12.57-6.2,0,1.09,0,2.15,0,3.22,0,.11.24.27.4.32,3.21,1,5.3,3.46,6.83,6.47a12.25,12.25,0,0,1-11.47-.87c-4-2.38-6.25-6.12-7.62-10.44a20.45,20.45,0,0,1-.89-6.31c0-3,0-6,.1-8.93a19.08,19.08,0,0,1,2.83-9.61C19,10.73,22.26,7.87,27,7.2A12.25,12.25,0,0,1,37.2,10.35a18.39,18.39,0,0,1,6.39,13.19,97.17,97.17,0,0,1-.06,12.54,18,18,0,0,1-3.14,8.78C39.93,45.56,39.42,46.23,38.89,47Zm-.35-3.62a14.57,14.57,0,0,0,2.66-7.28q.15-5.7.12-11.4A16.41,16.41,0,0,0,36.5,12.85a10.75,10.75,0,0,0-7.11-3.46c-3.58-.24-6.43,1.28-8.84,3.78A16.66,16.66,0,0,0,16,24.41c-.13,2.91-.09,5.83-.09,8.74a18.77,18.77,0,0,0,2.71,10,12.22,12.22,0,0,0,8.79,6.23,17.6,17.6,0,0,0,2.52,0,7.84,7.84,0,0,0-5.43-3.23c-.4-.07-.52-.21-.51-.61,0-2,0-4,0-6V38.5A18.71,18.71,0,0,1,38.54,43.36Z"/></g></g></svg>