<svg xmlns="http://www.w3.org/2000/svg" xmlns:xlink="http://www.w3.org/1999/xlink" viewBox="0 0 85.23 130.16"><defs><style>.cls-1{fill:url(#linear-gradient);}.cls-2{fill:#fff;}.cls-3{fill:#283883;}</style><linearGradient id="linear-gradient" x1="-348.06" y1="270.66" x2="-347.32" y2="271.2" gradientTransform="matrix(85.23, 0, 0, -105.69, 29682.37, 28686.15)" gradientUnits="userSpaceOnUse"><stop offset="0.37" stop-color="#1d295a"/><stop offset="1" stop-color="#5b73b2"/></linearGradient></defs><g id="Layer_2" data-name="Layer 2"><g id="Layer_1-2" data-name="Layer 1"><g id="TET_hub_logo" data-name="TET hub logo"><g id="Group_4" data-name="Group 4"><g id="Group_3" data-name="Group 3"><g id="Group_2" data-name="Group 2"><g id="Group_1" data-name="Group 1"><path id="Path_1" data-name="Path 1" class="cls-1" d="M75.71,15.53,75.25,15C69.86,7.33,56.45,0,42.63,0S15.36,7.33,10,15l-.45.57C8.37,17-1.2,29.51.13,45.84,1,57.12,6.85,66.12,7.68,67.45c1.94,3,5.25,7.1,7.33,13.94a27.36,27.36,0,0,1,1.6,7.37c.12,2.5,0,8.54.08,12.3a4.55,4.55,0,0,0,.53,2.2,5.48,5.48,0,0,0,2.89,2.43H25.5a1,1,0,0,0,.65-1.14L26,50.05a1.75,1.75,0,0,1,.8-1.44l15.76-9.68,15.8,9.72A1.62,1.62,0,0,1,59.15,50L59,104.52a1.1,1.1,0,0,0,.65,1.14h5.39A5.54,5.54,0,0,0,68,103.22a4.79,4.79,0,0,0,.53-2.2c.07-3.8,0-9.8.07-12.3a27.74,27.74,0,0,1,1.6-7.37c2.09-6.8,5.36-10.94,7.33-13.94A49.74,49.74,0,0,0,85.1,45.8C86.45,29.47,76.85,17,75.71,15.53ZM74.26,52a.87.87,0,0,1-.9.86.76.76,0,0,1-.39-.1L43,35.51a.9.9,0,0,0-.87,0L12.24,52.75a.86.86,0,0,1-1.17-.3A.93.93,0,0,1,11,52V46.41a.93.93,0,0,1,.42-.76l30.76-18a.92.92,0,0,1,.88,0l30.76,18a.85.85,0,0,1,.42.76L74.27,52Z"/></g></g></g></g><path id="Path_106" data-name="Path 106" class="cls-2" d="M0,108.73H83.73v21.43H0Z"/><g id="Group_8" data-name="Group 8"><g id="Group_7" data-name="Group 7"><g id="Group_6" data-name="Group 6"><g id="Group_5" data-name="Group 5"><path id="Path_2" data-name="Path 2" class="cls-3" d="M10.46,126.13V115.34H6.2v-2.5H17.79v2.5H13.53v10.79Z"/><path id="Path_3" data-name="Path 3" class="cls-3" d="M22.5,123.66h7.21v2.47H19.42V112.84H29.49v2.46h-7Zm-.23-5.51h6.42v2.4H22.27Z"/><path id="Path_4" data-name="Path 4" class="cls-3" d="M34.92,126.13V115.34H30.66v-2.5H42.25v2.5H38v10.79Z"/><path id="Path_5" data-name="Path 5" d="M45.93,126.13h-1.4V112.84h1.4ZM54.36,120H45.78v-1.22h8.58Zm-.11-7.14h1.36v13.29H54.25Z"/><path id="Path_6" data-name="Path 6" d="M63.78,126.16a5.22,5.22,0,0,1-2.24-.45,3.23,3.23,0,0,1-1.48-1.44,5,5,0,0,1-.53-2.36v-5.77h1.33v5.62a3.24,3.24,0,0,0,.8,2.4,2.92,2.92,0,0,0,2.2.8,4.12,4.12,0,0,0,1.82-.42,2.75,2.75,0,0,0,1.18-1.25,4.66,4.66,0,0,0,.41-2v-5.25H68.6v10H67.31v-2.73l.19.49A3.58,3.58,0,0,1,66,125.48,3.35,3.35,0,0,1,63.78,126.16Z"/><path id="Path_7" data-name="Path 7" d="M72.44,126.13V112h1.33v7.06l-.19,2,.15,2v3Zm5.13,0a4.43,4.43,0,0,1-2.36-.61,4.6,4.6,0,0,1-1.67-1.75,6.53,6.53,0,0,1,0-5.5,3.94,3.94,0,0,1,1.67-1.71,4.69,4.69,0,0,1,2.32-.57,5.13,5.13,0,0,1,2.54.64,4.8,4.8,0,0,1,1.79,1.79,5.34,5.34,0,0,1,.64,2.66,5.43,5.43,0,0,1-.64,2.65,4.41,4.41,0,0,1-1.79,1.79A5,5,0,0,1,77.57,126.17ZM77.45,125a3.51,3.51,0,0,0,1.9-.49,3.31,3.31,0,0,0,1.33-1.37,4,4,0,0,0,.5-2,4,4,0,0,0-.5-2,3.88,3.88,0,0,0-1.33-1.37,3.69,3.69,0,0,0-5.07,1.28.41.41,0,0,0,0,.09,3.85,3.85,0,0,0-.5,2,4,4,0,0,0,.5,2,3.48,3.48,0,0,0,1.32,1.37A3.74,3.74,0,0,0,77.45,125Z"/></g></g></g></g></g></g></g></svg>