<?xml version="1.0" encoding="utf-8"?>
<!-- Generator: Adobe Illustrator 27.0.0, SVG Export Plug-In . SVG Version: 6.00 Build 0)  -->
<svg version="1.1" id="Layer_1" xmlns="http://www.w3.org/2000/svg" xmlns:xlink="http://www.w3.org/1999/xlink" x="0px" y="0px"
	 viewBox="0 0 612 792" style="enable-background:new 0 0 612 792;" xml:space="preserve">
<style type="text/css">
	.st0{fill:#FFB300;}
	.st1{fill:url(#SVGID_1_);}
	.st2{fill:#2A3883;}
</style>
<g>
	<path id="Rectangle_123" class="st0" d="M550.6,877.3h99.8c2.5,0,4.6,2.3,4.6,5.2V921c0,2.9-2,5.2-4.6,5.2h-99.8
		c-2.5,0-4.6-2.3-4.6-5.2v-38.5C546,879.6,548,877.3,550.6,877.3z"/>
	<g>
		<g>
			<g>
				<g>
					
						<linearGradient id="SVGID_1_" gradientUnits="userSpaceOnUse" x1="477.3257" y1="-4.9915" x2="642.6158" y2="146.6372" gradientTransform="matrix(1 0 0 -1 0 791.7795)">
						<stop  offset="0.3693" style="stop-color:#1E295A"/>
						<stop  offset="1" style="stop-color:#5C73B7"/>
					</linearGradient>
					<path class="st1" d="M633.1,628.3c-0.6-0.8-1-1.3-1.2-1.5c-14.2-20.1-49.5-39.4-85.9-39.4s-71.8,19.3-86,39.4
						c-0.1,0.1-0.6,0.7-1.2,1.5c-3,3.8-28.2,36.8-24.7,79.8c2.4,29.7,17.7,53.4,19.9,56.9c5.1,7.8,13.8,18.7,19.3,36.7
						c2.4,7.9,3.9,12.6,4.2,19.4c0.3,6.6-0.1,22.5,0.2,32.4c0,1.1,0.1,3.4,1.4,5.8c2.1,4,5.9,5.7,7.6,6.4c0,0,15.7,0,14.2,0
						c0,0,1.8-0.5,1.7-3l-0.3-143.5c0-1.5,0.8-3,2.1-3.8l41.5-25.5l41.6,25.6c1.2,0.8,2,2.1,2,3.5l-0.3,143.6c-0.1,2.4,1.7,3,1.7,3
						c-1.5,0,14.2,0,14.2,0c1.7-0.7,5.5-2.4,7.6-6.4c1.3-2.5,1.4-4.8,1.4-5.8c0.2-10-0.1-25.8,0.2-32.4c0.3-6.8,1.8-11.5,4.2-19.4
						c5.5-17.9,14.1-28.8,19.3-36.7c2.3-3.5,17.5-27.2,20-56.9C661.4,665,636.1,632.1,633.1,628.3z M629.3,724.3
						c0,1.7-1.9,2.8-3.4,2l-78.8-45.4c-0.7-0.4-1.6-0.4-2.3,0L466,726.3c-1.5,0.9-3.4-0.2-3.4-2v-14.7c0-0.8,0.4-1.5,1.1-2l81-47.3
						c0.7-0.4,1.6-0.4,2.3,0l81,47.3c0.7,0.4,1.1,1.1,1.1,2L629.3,724.3L629.3,724.3z"/>
				</g>
			</g>
		</g>
	</g>
	<g>
		<g>
			<g>
				<g>
					<path class="st2" d="M461.3,919.5v-28.4h-11.2v-6.6h30.5v6.6h-11.2v28.4H461.3z"/>
					<path class="st2" d="M493,913h19v6.5h-27.1v-35h26.5v6.5H493V913z M492.4,898.5h16.9v6.3h-16.9V898.5z"/>
					<path class="st2" d="M525.7,919.5v-28.4h-11.2v-6.6H545v6.6h-11.2v28.4H525.7z"/>
					<path d="M554.7,919.5H551v-35h3.7V919.5z M576.9,903.3h-22.6v-3.2h22.6V903.3z M576.6,884.5h3.6v35h-3.6V884.5z"/>
					<path d="M601.7,919.6c-2.2,0-4.2-0.4-5.9-1.2c-1.7-0.8-3-2.1-3.9-3.8c-0.9-1.7-1.4-3.8-1.4-6.2v-15.2h3.5V908
						c0,2.8,0.7,4.9,2.1,6.3c1.4,1.4,3.3,2.1,5.8,2.1c1.8,0,3.4-0.4,4.8-1.1c1.4-0.8,2.4-1.8,3.1-3.3s1.1-3.2,1.1-5.2V893h3.5v26.2
						H611V912l0.5,1.3c-0.8,1.9-2.1,3.4-3.9,4.5C606.1,919.1,604,919.6,601.7,919.6z"/>
					<path d="M624.5,919.5v-37.1h3.5V901l-0.5,5.3l0.4,5.3v7.9H624.5z M638,919.6c-2.3,0-4.4-0.5-6.2-1.6c-1.8-1.1-3.3-2.6-4.4-4.6
						c-1.1-2-1.6-4.4-1.6-7.2c0-2.9,0.5-5.3,1.6-7.3c1.1-2,2.5-3.5,4.4-4.5c1.8-1,3.9-1.5,6.1-1.5c2.5,0,4.7,0.6,6.7,1.7
						c2,1.1,3.5,2.7,4.7,4.7c1.1,2,1.7,4.3,1.7,7c0,2.6-0.6,5-1.7,7c-1.1,2-2.7,3.6-4.7,4.7C642.7,919.1,640.5,919.6,638,919.6z
						 M637.7,916.5c1.9,0,3.5-0.4,5-1.3c1.5-0.8,2.6-2,3.5-3.6c0.9-1.6,1.3-3.3,1.3-5.4c0-2.1-0.4-3.9-1.3-5.4
						c-0.9-1.5-2-2.7-3.5-3.6s-3.1-1.3-5-1.3c-1.9,0-3.5,0.4-5,1.3s-2.6,2-3.5,3.6c-0.9,1.5-1.3,3.3-1.3,5.4c0,2,0.4,3.8,1.3,5.4
						c0.9,1.5,2,2.8,3.5,3.6C634.2,916.1,635.9,916.5,637.7,916.5z"/>
				</g>
			</g>
		</g>
	</g>
</g>
</svg>
