<svg xmlns="http://www.w3.org/2000/svg" viewBox="0 0 1098.11 1098.11"><defs><style>.cls-1{fill:none;stroke:#000;stroke-miterlimit:10;stroke-width:40px;}</style></defs><g id="Layer_2" data-name="Layer 2"><g id="Layer_1-2" data-name="Layer 1"><path d="M551.3,105.69h51.11c9.72,1.18,19.48,2.09,29.16,3.59,91.68,14.19,171.15,52.65,235.13,121.44,93.43,100.46,129.93,219.19,107.92,354.94C944.38,772.14,786.37,908.38,603.8,923c-77.46,6.19-150.66-9.69-219.66-45.73a15.78,15.78,0,0,0-10.39-1.15Q268.4,903.43,163.18,931.24V928a53.38,53.38,0,0,0,2.69-6.48q26.67-97.71,53-195.51a20,20,0,0,0-1.76-13.32c-46.33-86-60.85-177.41-43.75-273.49,31.64-177.84,173.11-299,332.31-327.06C520.8,109.5,536.09,107.82,551.3,105.69ZM261.5,832.13c3.7-.79,5.78-1.14,7.81-1.67C306.6,820.69,343.92,811,381.13,801c5.91-1.59,10.34-.7,15.52,2.44,78.1,47.2,161.83,62.47,250.81,42.13C819,806.34,942.1,642,906.77,450,874.64,275.4,710.24,154.2,535.82,175.42,435.18,187.67,355,235.75,296.94,319.61c-48.61,70.28-68.5,148.7-59,234.26,5.93,53.3,24.56,101.94,53.53,146.66,3.05,4.71,3.74,8.77,2.17,14.12-5.25,18-10.09,36.14-15,54.25C273,789.52,267.45,810.16,261.5,832.13Z"/><path d="M680.38,709.73c-26.34.84-49.78-9.92-73.89-18.31-68.73-23.91-121.88-68.9-167.21-124.72-21.77-26.81-43.6-53.52-58-85.48-15.09-33.59-21.21-68-5.48-102.72,6.74-14.89,17.17-28.21,26.88-41.54,5.89-8.09,15.15-11.78,25.15-12.14,9-.33,18.09-.18,27.12.27,7.66.37,11.63,6.13,14.51,12.31,4.19,9,7.83,18.21,11.63,27.36,7.51,18.06,14.78,36.22,22.56,54.16,3.18,7.34,3.29,14.19-1.27,20.58-7.59,10.66-15.33,21.23-23.5,31.43-8.76,10.94-9.24,13.84-2.14,25.72,32.53,54.42,77.34,94.42,136,118.28,12.21,5,16.59,4.14,25-6.13,9.65-11.8,19.22-23.68,28.6-35.71,6.6-8.47,10.36-10.27,20.59-6.67,9.25,3.26,18.19,7.47,27.2,11.42,18.1,7.94,36.22,15.84,54.2,24.06,11.4,5.2,12.39,8,12.22,20.66-.74,54.62-42.71,78.66-82.65,86C692.17,709.57,686.22,709.36,680.38,709.73Z"/><circle class="cls-1" cx="549.05" cy="549.05" r="529.05"/></g></g></svg>