<svg xmlns="http://www.w3.org/2000/svg" viewBox="0 0 85.58 85.59"><g id="Layer_2" data-name="Layer 2"><g id="Layer_1-2" data-name="Layer 1"><path d="M40.62,0H46c1,.12,2,.22,3.05.37A41.22,41.22,0,0,1,73.63,13c9.78,10.42,13.6,22.73,11.3,36.8-3.17,19.34-19.7,33.46-38.81,35a41.93,41.93,0,0,1-23-4.74A1.65,1.65,0,0,0,22,79.87Q11,82.71,0,85.59v-.33a4.77,4.77,0,0,0,.28-.67C2.14,77.83,4,71.08,5.83,64.32a2.1,2.1,0,0,0-.18-1.39A42.16,42.16,0,0,1,1.07,34.58C4.38,16.14,19.19,3.58,35.85.67,37.43.39,39,.22,40.62,0ZM10.29,75.32c.39-.09.61-.12.82-.18,3.9-1,7.81-2,11.7-3a1.89,1.89,0,0,1,1.63.25,34.61,34.61,0,0,0,26.25,4.37c18-4.07,30.83-21.11,27.14-41A35.42,35.42,0,0,0,39,7.23a34.26,34.26,0,0,0-25,15,34.88,34.88,0,0,0-.57,39.49,1.61,1.61,0,0,1,.23,1.47c-.55,1.86-1.06,3.74-1.58,5.62C11.49,70.9,10.91,73,10.29,75.32Z"/><path d="M54.13,62.62c-2.75.09-5.21-1-7.73-1.89-7.2-2.48-12.76-7.15-17.5-12.93a40.77,40.77,0,0,1-6.07-8.87c-1.58-3.48-2.22-7-.57-10.65A25.41,25.41,0,0,1,25.07,24a3.31,3.31,0,0,1,2.63-1.26c.95,0,1.9,0,2.84,0A1.82,1.82,0,0,1,32.06,24c.44.93.82,1.89,1.22,2.84.78,1.87,1.55,3.75,2.36,5.61a2.05,2.05,0,0,1-.13,2.14c-.8,1.1-1.61,2.2-2.46,3.26s-1,1.43-.23,2.66A29,29,0,0,0,47.05,52.8c1.28.51,1.74.43,2.62-.64s2-2.45,3-3.7c.69-.88,1.09-1.07,2.16-.69s1.9.77,2.84,1.18c1.9.82,3.79,1.64,5.68,2.5,1.19.54,1.29.83,1.28,2.14-.08,5.66-4.47,8.15-8.65,8.91A14.1,14.1,0,0,1,54.13,62.62Z"/></g></g></svg>