<svg xmlns="http://www.w3.org/2000/svg" viewBox="0 0 1098.11 1098.11">
    <defs>
        <style>.cls-1{fill:none;stroke:#000;stroke-miterlimit:10;stroke-width:40px;}</style>
    </defs>
    <g id="Layer_2" data-name="Layer 2">
        <g id="Layer_1-2" data-name="Layer 1">
            <path
                d="M551.3,113h51.11c9.72,1.18,19.48,2.09,29.16,3.59,91.68,14.19,171.15,52.65,235.13,121.44C960.13,338.52,996.63,457.25,974.62,593,944.38,779.48,786.37,915.72,603.8,930.29c-77.46,6.19-150.66-9.69-219.66-45.73a15.78,15.78,0,0,0-10.39-1.15Q268.4,910.77,163.18,938.58v-3.22a53.38,53.38,0,0,0,2.69-6.48q26.67-97.71,53-195.51a20,20,0,0,0-1.76-13.32c-46.33-86-60.85-177.41-43.75-273.49C205,268.72,346.49,147.53,505.69,119.5,520.8,116.84,536.09,115.16,551.3,113ZM261.5,839.47c3.7-.79,5.78-1.14,7.81-1.67,37.29-9.77,74.61-19.43,111.82-29.48,5.91-1.59,10.34-.7,15.52,2.44,78.1,47.2,161.83,62.47,250.81,42.13C819,813.68,942.1,649.32,906.77,457.34c-32.13-174.6-196.53-295.8-370.95-274.58C435.18,195,355,243.09,296.94,327c-48.61,70.28-68.5,148.7-59,234.26,5.93,53.3,24.56,101.94,53.53,146.66,3.05,4.71,3.74,8.77,2.17,14.12-5.25,18-10.09,36.14-15,54.25C273,796.86,267.45,817.5,261.5,839.47Z" />
            <path
                d="M680.38,717.07c-26.34.84-49.78-9.92-73.89-18.31C537.76,674.85,484.61,629.86,439.28,574c-21.77-26.81-43.6-53.52-58-85.48-15.09-33.59-21.21-68-5.48-102.72C382.58,371,393,357.63,402.72,344.3c5.89-8.09,15.15-11.78,25.15-12.14,9-.32,18.09-.18,27.12.27,7.66.37,11.63,6.13,14.51,12.31,4.19,9,7.83,18.21,11.63,27.36,7.51,18.06,14.78,36.22,22.56,54.16,3.18,7.34,3.29,14.19-1.27,20.58-7.59,10.66-15.33,21.23-23.5,31.43-8.76,10.94-9.24,13.84-2.14,25.72,32.53,54.42,77.34,94.42,136,118.28,12.21,5,16.59,4.14,25-6.13,9.65-11.8,19.22-23.68,28.6-35.71,6.6-8.47,10.36-10.27,20.59-6.67,9.25,3.26,18.19,7.47,27.2,11.42,18.1,7.94,36.22,15.84,54.2,24.06,11.4,5.2,12.39,8,12.22,20.66-.74,54.62-42.71,78.66-82.65,86C692.17,716.91,686.22,716.7,680.38,717.07Z" />
            <circle class="cls-1" cx="549.05" cy="549.05" r="529.05" />
        </g>
    </g>
</svg>